<?xml version="1.0" encoding="UTF-8"?>
<svg id="Layer_2" data-name="Layer 2" xmlns="http://www.w3.org/2000/svg" viewBox="0 0 545.71 77.12">
  <defs>
    <style>
      .cls-1 {
        fill: #1bc2fd;
      }

      .cls-2 {
        fill: #20cfca;
      }
    </style>
  </defs>
  <g id="Layer_1-2" data-name="Layer 1">
    <g>
      <g>
        <path class="cls-1" d="M94.33,28.35c1.5-2.9,3.53-5.14,6.1-6.7,2.57-1.56,5.44-2.35,8.61-2.35,2.77,0,5.2.56,7.27,1.68,2.08,1.12,3.74,2.52,4.99,4.22v-5.29h9.45v37.13h-9.45v-5.43c-1.21,1.74-2.87,3.18-4.99,4.32-2.12,1.14-4.57,1.71-7.34,1.71-3.13,0-5.98-.8-8.55-2.41-2.57-1.61-4.6-3.88-6.1-6.8s-2.25-6.29-2.25-10.09.75-7.08,2.25-9.99ZM119.97,32.61c-.89-1.63-2.1-2.88-3.62-3.75-1.52-.87-3.15-1.31-4.89-1.31s-3.35.42-4.83,1.27c-1.47.85-2.67,2.09-3.59,3.72-.92,1.63-1.37,3.56-1.37,5.8s.46,4.19,1.37,5.87c.92,1.67,2.12,2.96,3.62,3.85,1.5.89,3.09,1.34,4.79,1.34s3.37-.44,4.89-1.31c1.52-.87,2.72-2.12,3.62-3.75.89-1.63,1.34-3.59,1.34-5.87s-.45-4.23-1.34-5.86Z"/>
        <path class="cls-1" d="M154.05,21.04c1.94-1.12,4.17-1.67,6.67-1.67v9.85h-2.48c-2.95,0-5.17.69-6.67,2.08-1.5,1.39-2.25,3.8-2.25,7.24v18.5h-9.38V19.9h9.38v5.76c1.21-1.97,2.78-3.51,4.72-4.62Z"/>
        <path class="cls-1" d="M181.39,20.98c2.12-1.12,4.55-1.68,7.27-1.68,3.17,0,6.04.78,8.61,2.35,2.57,1.56,4.6,3.79,6.1,6.67,1.5,2.88,2.25,6.22,2.25,10.02s-.75,7.16-2.25,10.09c-1.5,2.93-3.53,5.19-6.1,6.8-2.57,1.61-5.44,2.41-8.61,2.41-2.77,0-5.2-.55-7.27-1.64-2.08-1.09-3.74-2.51-4.99-4.26v5.29h-9.38V7.44h9.38v17.9c1.21-1.79,2.87-3.24,4.99-4.36ZM194.67,32.54c-.92-1.63-2.12-2.87-3.62-3.72-1.5-.85-3.12-1.27-4.86-1.27s-3.3.44-4.79,1.31c-1.5.87-2.7,2.13-3.62,3.79-.92,1.65-1.37,3.6-1.37,5.83s.46,4.18,1.37,5.83c.92,1.65,2.12,2.92,3.62,3.79,1.5.87,3.09,1.31,4.79,1.31s3.36-.45,4.86-1.34c1.5-.89,2.7-2.17,3.62-3.82.92-1.65,1.37-3.62,1.37-5.9s-.46-4.17-1.37-5.8Z"/>
        <path class="cls-1" d="M246.71,41.29h-27.15c.22,2.68,1.16,4.78,2.82,6.3,1.65,1.52,3.69,2.28,6.1,2.28,3.49,0,5.97-1.5,7.44-4.49h10.12c-1.07,3.58-3.13,6.51-6.17,8.81-3.04,2.3-6.77,3.45-11.19,3.45-3.58,0-6.78-.79-9.62-2.38-2.84-1.58-5.05-3.83-6.64-6.74-1.59-2.9-2.38-6.25-2.38-10.05s.78-7.22,2.35-10.12c1.56-2.9,3.75-5.14,6.57-6.7,2.82-1.56,6.05-2.35,9.72-2.35s6.69.76,9.48,2.28c2.79,1.52,4.96,3.68,6.5,6.47,1.54,2.79,2.31,6,2.31,9.62,0,1.34-.09,2.55-.27,3.62ZM237.26,34.98c-.04-2.41-.92-4.34-2.61-5.8-1.7-1.45-3.78-2.18-6.23-2.18-2.32,0-4.28.7-5.87,2.11s-2.56,3.36-2.92,5.86h17.63Z"/>
        <path class="cls-1" d="M288.07,41.29h-27.15c.22,2.68,1.16,4.78,2.82,6.3,1.65,1.52,3.69,2.28,6.1,2.28,3.49,0,5.97-1.5,7.44-4.49h10.12c-1.07,3.58-3.13,6.51-6.17,8.81-3.04,2.3-6.77,3.45-11.19,3.45-3.58,0-6.78-.79-9.62-2.38-2.84-1.58-5.05-3.83-6.64-6.74-1.59-2.9-2.38-6.25-2.38-10.05s.78-7.22,2.35-10.12c1.56-2.9,3.75-5.14,6.57-6.7,2.82-1.56,6.05-2.35,9.72-2.35s6.69.76,9.48,2.28c2.79,1.52,4.96,3.68,6.5,6.47,1.54,2.79,2.31,6,2.31,9.62,0,1.34-.09,2.55-.27,3.62ZM278.62,34.98c-.04-2.41-.92-4.34-2.61-5.8-1.7-1.45-3.78-2.18-6.23-2.18-2.32,0-4.28.7-5.87,2.11s-2.56,3.36-2.92,5.86h17.63Z"/>
        <path class="cls-2" d="M296.01,28.79c1.5-2.84,3.57-5.03,6.23-6.57,2.66-1.54,5.66-2.31,9.01-2.31s6.49.8,9.01,2.41c2.52,1.61,4.35,3.67,5.46,6.17v-8.04h4.69v36.6h-4.69v-8.11c-1.16,2.5-3.01,4.57-5.53,6.2-2.53,1.63-5.53,2.45-9.02,2.45s-6.29-.78-8.95-2.35c-2.66-1.56-4.74-3.78-6.23-6.64-1.5-2.86-2.25-6.17-2.25-9.92s.75-7.05,2.25-9.89ZM323.92,30.96c-1.21-2.23-2.85-3.95-4.93-5.16-2.08-1.21-4.37-1.81-6.87-1.81s-4.92.58-6.97,1.74c-2.06,1.16-3.68,2.85-4.86,5.06-1.18,2.21-1.78,4.84-1.78,7.88s.59,5.62,1.78,7.88c1.18,2.26,2.8,3.98,4.86,5.16,2.05,1.18,4.38,1.78,6.97,1.78s4.79-.6,6.87-1.81c2.08-1.21,3.72-2.93,4.93-5.16,1.21-2.23,1.81-4.83,1.81-7.77s-.6-5.54-1.81-7.78Z"/>
        <path class="cls-2" d="M341.28,28.79c1.52-2.84,3.61-5.03,6.27-6.57,2.66-1.54,5.66-2.31,9.02-2.31s6.43.82,8.98,2.45c2.55,1.63,4.36,3.68,5.43,6.13v-8.04h4.69v53.89h-4.69v-25.34c-1.07,2.46-2.89,4.5-5.46,6.13-2.57,1.63-5.6,2.45-9.08,2.45s-6.29-.78-8.95-2.35c-2.66-1.56-4.74-3.78-6.23-6.64-1.5-2.86-2.25-6.17-2.25-9.92s.76-7.05,2.28-9.89ZM369.17,30.96c-1.21-2.23-2.85-3.95-4.93-5.16-2.08-1.21-4.37-1.81-6.87-1.81s-4.92.58-6.97,1.74c-2.06,1.16-3.68,2.85-4.86,5.06-1.18,2.21-1.78,4.84-1.78,7.88s.59,5.62,1.78,7.88c1.18,2.26,2.8,3.98,4.86,5.16,2.05,1.18,4.38,1.78,6.97,1.78s4.79-.6,6.87-1.81c2.08-1.21,3.72-2.93,4.93-5.16,1.21-2.23,1.81-4.83,1.81-7.77s-.6-5.54-1.81-7.78Z"/>
        <path class="cls-2" d="M418.1,20.44v36.6h-4.69v-6.43c-1.07,2.28-2.73,4.02-4.96,5.23-2.23,1.21-4.74,1.81-7.51,1.81-4.38,0-7.95-1.35-10.72-4.06-2.77-2.7-4.16-6.62-4.16-11.76v-21.38h4.62v20.84c0,3.98.99,7.02,2.98,9.12,1.99,2.1,4.7,3.15,8.14,3.15s6.34-1.12,8.45-3.35c2.1-2.23,3.15-5.52,3.15-9.85v-19.91h4.69Z"/>
        <path class="cls-2" d="M428.92,28.79c1.5-2.84,3.57-5.03,6.23-6.57,2.66-1.54,5.66-2.31,9.01-2.31s6.49.8,9.01,2.41c2.52,1.61,4.35,3.67,5.46,6.17v-8.04h4.69v36.6h-4.69v-8.11c-1.16,2.5-3.01,4.57-5.53,6.2-2.53,1.63-5.53,2.45-9.02,2.45s-6.29-.78-8.95-2.35c-2.66-1.56-4.74-3.78-6.23-6.64-1.5-2.86-2.25-6.17-2.25-9.92s.75-7.05,2.25-9.89ZM456.84,30.96c-1.21-2.23-2.85-3.95-4.93-5.16-2.08-1.21-4.37-1.81-6.87-1.81s-4.92.58-6.97,1.74c-2.06,1.16-3.68,2.85-4.86,5.06-1.18,2.21-1.78,4.84-1.78,7.88s.59,5.62,1.78,7.88c1.18,2.26,2.8,3.98,4.86,5.16,2.05,1.18,4.38,1.78,6.97,1.78s4.79-.6,6.87-1.81c2.08-1.21,3.72-2.93,4.93-5.16,1.21-2.23,1.81-4.83,1.81-7.77s-.6-5.54-1.81-7.78Z"/>
        <path class="cls-2" d="M480.16,24.39v22.72c0,2.24.42,3.78,1.27,4.62.85.85,2.35,1.27,4.49,1.27h4.29v4.02h-5.03c-3.31,0-5.76-.77-7.37-2.31-1.61-1.54-2.41-4.08-2.41-7.61v-22.72h-5.09v-3.95h5.09v-9.18h4.76v9.18h10.05v3.95h-10.05Z"/>
        <path class="cls-2" d="M497.86,12.53c-.67-.67-1-1.5-1-2.48s.33-1.8,1-2.45c.67-.65,1.47-.97,2.41-.97s1.74.33,2.41.97c.67.65,1,1.46,1,2.45s-.33,1.81-1,2.48c-.67.67-1.47,1-2.41,1s-1.74-.33-2.41-1ZM502.61,20.44v36.6h-4.69V20.44h4.69Z"/>
        <path class="cls-2" d="M513.41,28.79c1.52-2.84,3.62-5.03,6.3-6.57,2.68-1.54,5.74-2.31,9.18-2.31,4.51,0,8.23,1.12,11.16,3.35,2.93,2.24,4.81,5.27,5.66,9.12h-5.03c-.63-2.64-1.98-4.7-4.05-6.2-2.08-1.5-4.66-2.25-7.74-2.25-2.46,0-4.67.56-6.64,1.68-1.97,1.12-3.52,2.78-4.66,4.99-1.14,2.21-1.71,4.93-1.71,8.14s.57,5.94,1.71,8.18c1.14,2.24,2.69,3.91,4.66,5.03,1.97,1.12,4.18,1.68,6.64,1.68,3.08,0,5.66-.75,7.74-2.25,2.08-1.5,3.43-3.59,4.05-6.27h5.03c-.85,3.75-2.75,6.77-5.7,9.05-2.95,2.28-6.66,3.42-11.13,3.42-3.44,0-6.5-.77-9.18-2.31-2.68-1.54-4.78-3.73-6.3-6.57-1.52-2.84-2.28-6.16-2.28-9.95s.76-7.12,2.28-9.95Z"/>
      </g>
      <g>
        <path class="cls-2" d="M32.75,39.11l-9.21,9.21c-5.38,5.38-14.11,5.37-19.5-.01-5.39-5.39-5.39-14.11-.01-19.5,5.39-5.39,14.11-5.39,19.51,0l9.2,9.2c.3.3.31.79.01,1.1Z"/>
        <path class="cls-1" d="M48.31,73.09c-5.38,5.38-14.11,5.37-19.5-.01-5.38-5.38-5.39-14.11-.01-19.5l9.21-9.21c.3-.3.79-.29,1.08,0l9.21,9.21c5.38,5.38,5.39,14.11,0,19.51Z"/>
        <path class="cls-2" d="M73.09,48.31c-5.39,5.39-14.13,5.38-19.51,0l-9.21-9.21c-.29-.29-.3-.78,0-1.08l9.21-9.21c5.38-5.38,14.13-5.38,19.51,0,5.38,5.38,5.38,14.13,0,19.51Z"/>
        <path class="cls-1" d="M48.32,23.55l-9.21,9.21c-.3.3-.79.29-1.1-.01l-9.2-9.2c-5.39-5.39-5.39-14.11,0-19.51,5.38-5.38,14.11-5.39,19.51,0,5.38,5.38,5.38,14.13,0,19.51Z"/>
      </g>
    </g>
  </g>
</svg>