<?xml version="1.0" encoding="UTF-8"?>
<svg id="Layer_2" data-name="Layer 2" xmlns="http://www.w3.org/2000/svg" viewBox="0 0 427.75 77.12">
  <defs>
    <style>
      .cls-1 {
        fill: #1bc2fd;
      }

      .cls-2 {
        fill: #20cfca;
      }
    </style>
  </defs>
  <g id="Layer_1-2" data-name="Layer 1">
    <g>
      <g>
        <path class="cls-2" d="M105.45,22.32c2.52-1.61,5.51-2.41,8.95-2.41s6.34.77,8.98,2.31c2.64,1.54,4.7,3.73,6.2,6.57,1.5,2.84,2.25,6.13,2.25,9.89s-.75,7.06-2.25,9.92c-1.5,2.86-3.58,5.07-6.23,6.64-2.66,1.56-5.64,2.35-8.95,2.35-3.49,0-6.49-.79-9.01-2.38-2.53-1.59-4.37-3.65-5.53-6.2v8.04h-4.62V7.44h4.62v21.11c1.21-2.55,3.07-4.62,5.6-6.23ZM125.29,30.8c-1.18-2.21-2.8-3.9-4.86-5.06-2.06-1.16-4.38-1.74-6.97-1.74s-4.79.6-6.87,1.81c-2.08,1.21-3.72,2.93-4.93,5.16-1.21,2.24-1.81,4.83-1.81,7.78s.6,5.54,1.81,7.77c1.21,2.24,2.85,3.96,4.93,5.16,2.08,1.21,4.37,1.81,6.87,1.81s4.92-.59,6.97-1.78c2.05-1.18,3.67-2.9,4.86-5.16,1.18-2.26,1.78-4.88,1.78-7.88s-.59-5.66-1.78-7.88Z"/>
        <path class="cls-2" d="M140.41,12.53c-.67-.67-1-1.5-1-2.48s.33-1.8,1-2.45c.67-.65,1.47-.97,2.41-.97s1.74.33,2.41.97c.67.65,1,1.46,1,2.45s-.33,1.81-1,2.48c-.67.67-1.47,1-2.41,1s-1.74-.33-2.41-1ZM145.17,20.44v36.6h-4.69V20.44h4.69Z"/>
        <path class="cls-2" d="M162.56,55.26c-2.75-1.54-4.92-3.73-6.5-6.57-1.59-2.84-2.38-6.16-2.38-9.95s.8-7.12,2.41-9.95c1.61-2.84,3.8-5.03,6.57-6.57,2.77-1.54,5.88-2.31,9.32-2.31s6.56.77,9.35,2.31c2.79,1.54,4.98,3.73,6.57,6.57,1.59,2.84,2.38,6.16,2.38,9.95s-.8,7.06-2.41,9.92-3.82,5.06-6.64,6.6c-2.82,1.54-5.94,2.31-9.38,2.31s-6.54-.77-9.28-2.31ZM178.55,51.84c2.05-1.09,3.72-2.75,4.99-4.96s1.91-4.93,1.91-8.14-.63-5.93-1.88-8.14-2.91-3.86-4.96-4.96c-2.06-1.09-4.29-1.64-6.7-1.64s-4.65.55-6.7,1.64c-2.06,1.1-3.7,2.75-4.93,4.96-1.23,2.21-1.84,4.93-1.84,8.14s.61,5.93,1.84,8.14c1.23,2.21,2.86,3.87,4.89,4.96,2.03,1.1,4.26,1.64,6.67,1.64s4.65-.55,6.7-1.64Z"/>
        <path class="cls-2" d="M252.91,23.83c2.7,2.7,4.06,6.62,4.06,11.76v21.45h-4.62v-20.91c0-3.98-.96-7.01-2.88-9.12-1.92-2.1-4.54-3.15-7.84-3.15s-6.19,1.14-8.24,3.42c-2.06,2.28-3.08,5.59-3.08,9.92v19.84h-4.62v-20.91c0-3.98-.96-7.01-2.88-9.12-1.92-2.1-4.56-3.15-7.91-3.15s-6.19,1.14-8.24,3.42c-2.06,2.28-3.08,5.59-3.08,9.92v19.84h-4.69V20.44h4.69v6.3c1.16-2.28,2.82-4.01,4.96-5.19,2.14-1.18,4.54-1.78,7.17-1.78,3.17,0,5.95.76,8.34,2.28,2.39,1.52,4.12,3.75,5.19,6.7.98-2.9,2.67-5.13,5.06-6.67,2.39-1.54,5.1-2.31,8.14-2.31,4.29,0,7.79,1.35,10.49,4.06Z"/>
        <path class="cls-2" d="M267.46,28.79c1.5-2.84,3.57-5.03,6.23-6.57,2.66-1.54,5.66-2.31,9.01-2.31s6.49.8,9.01,2.41c2.52,1.61,4.35,3.67,5.46,6.17v-8.04h4.69v36.6h-4.69v-8.11c-1.16,2.5-3.01,4.57-5.53,6.2-2.53,1.63-5.53,2.45-9.02,2.45s-6.29-.78-8.95-2.35c-2.66-1.56-4.74-3.78-6.23-6.64-1.5-2.86-2.25-6.17-2.25-9.92s.75-7.05,2.25-9.89ZM295.37,30.96c-1.21-2.23-2.85-3.95-4.93-5.16-2.08-1.21-4.37-1.81-6.87-1.81s-4.92.58-6.97,1.74c-2.06,1.16-3.68,2.85-4.86,5.06-1.18,2.21-1.78,4.84-1.78,7.88s.59,5.62,1.78,7.88c1.18,2.26,2.8,3.98,4.86,5.16,2.05,1.18,4.38,1.78,6.97,1.78s4.79-.6,6.87-1.81c2.08-1.21,3.72-2.93,4.93-5.16,1.21-2.23,1.81-4.83,1.81-7.77s-.6-5.54-1.81-7.78Z"/>
        <path class="cls-2" d="M322.01,21.65c2.12-1.25,4.73-1.88,7.81-1.88v4.89h-1.27c-3.4,0-6.12.92-8.18,2.75-2.06,1.83-3.08,4.89-3.08,9.18v20.44h-4.69V20.44h4.69v6.5c1.03-2.28,2.6-4.04,4.73-5.29Z"/>
        <path class="cls-2" d="M336.79,12.53c-.67-.67-1-1.5-1-2.48s.33-1.8,1-2.45c.67-.65,1.47-.97,2.41-.97s1.74.33,2.41.97c.67.65,1,1.46,1,2.45s-.33,1.81-1,2.48c-.67.67-1.47,1-2.41,1s-1.74-.33-2.41-1ZM341.55,20.44v36.6h-4.69V20.44h4.69Z"/>
        <path class="cls-2" d="M380.09,23.83c2.77,2.7,4.16,6.62,4.16,11.76v21.45h-4.62v-20.91c0-3.98-1-7.01-2.98-9.12-1.99-2.1-4.7-3.15-8.14-3.15s-6.35,1.12-8.45,3.35c-2.1,2.23-3.15,5.52-3.15,9.85v19.97h-4.69V20.44h4.69v6.23c1.16-2.23,2.84-3.94,5.03-5.13,2.19-1.18,4.67-1.78,7.44-1.78,4.38,0,7.95,1.35,10.72,4.06Z"/>
        <path class="cls-2" d="M427.61,40.55h-30.36c.13,2.77.8,5.14,2.01,7.1,1.21,1.97,2.79,3.45,4.76,4.46,1.96,1.01,4.11,1.51,6.43,1.51,3.04,0,5.6-.74,7.67-2.21s3.45-3.46,4.12-5.97h4.96c-.89,3.58-2.8,6.49-5.73,8.75-2.93,2.26-6.6,3.38-11.03,3.38-3.44,0-6.52-.77-9.25-2.31-2.73-1.54-4.86-3.73-6.4-6.57-1.54-2.84-2.31-6.16-2.31-9.95s.76-7.13,2.28-9.99c1.52-2.86,3.64-5.05,6.37-6.57,2.73-1.52,5.83-2.28,9.32-2.28s6.54.76,9.15,2.28c2.61,1.52,4.62,3.56,6.03,6.13,1.41,2.57,2.11,5.42,2.11,8.55,0,1.61-.04,2.84-.13,3.69ZM421.35,29.76c-1.14-1.92-2.69-3.37-4.66-4.36-1.97-.98-4.11-1.47-6.43-1.47-3.49,0-6.46,1.12-8.92,3.35-2.46,2.24-3.82,5.39-4.09,9.45h25.74c.04-2.73-.5-5.05-1.64-6.97Z"/>
      </g>
      <g>
        <path class="cls-2" d="M32.75,39.11l-9.21,9.21c-5.38,5.38-14.11,5.37-19.5-.01-5.39-5.39-5.39-14.11-.01-19.5,5.39-5.39,14.11-5.39,19.51,0l9.2,9.2c.3.3.31.79.01,1.1Z"/>
        <path class="cls-1" d="M48.31,73.09c-5.38,5.38-14.11,5.37-19.5-.01-5.38-5.38-5.39-14.11-.01-19.5l9.21-9.21c.3-.3.79-.29,1.08,0l9.21,9.21c5.38,5.38,5.39,14.11,0,19.51Z"/>
        <path class="cls-2" d="M73.09,48.31c-5.39,5.39-14.13,5.38-19.51,0l-9.21-9.21c-.29-.29-.3-.78,0-1.08l9.21-9.21c5.38-5.38,14.13-5.38,19.51,0,5.38,5.38,5.38,14.13,0,19.51Z"/>
        <path class="cls-1" d="M48.32,23.55l-9.21,9.21c-.3.3-.79.29-1.1-.01l-9.2-9.2c-5.39-5.39-5.39-14.11,0-19.51,5.38-5.38,14.11-5.39,19.51,0,5.38,5.38,5.38,14.13,0,19.51Z"/>
      </g>
    </g>
  </g>
</svg>