<?xml version="1.0" encoding="UTF-8"?>
<svg id="Layer_2" xmlns="http://www.w3.org/2000/svg" version="1.1" viewBox="0 0 286.8 77.1">
  <!-- Generator: Adobe Illustrator 29.2.1, SVG Export Plug-In . SVG Version: 2.1.0 Build 116)  -->
  <defs>
    <style>
      .st0 {
        fill: #949494;
      }
    </style>
  </defs>
  <g id="Layer_1-2">
    <g>
      <g>
        <path class="st0" d="M119.6,22.3c2.6,1.6,4.4,3.6,5.5,6.1v-8h4.7v37.5c0,3.3-.7,6.3-2.2,8.9-1.4,2.6-3.5,4.6-6.1,6s-5.5,2.1-8.8,2.1c-4.7,0-8.6-1.1-11.7-3.3-3.1-2.2-5-5.3-5.8-9.1h4.6c.8,2.5,2.3,4.6,4.6,6.1,2.3,1.5,5,2.3,8.3,2.3s4.5-.5,6.4-1.5,3.3-2.5,4.4-4.5,1.6-4.3,1.6-7v-9c-1.2,2.5-3,4.6-5.5,6.2-2.5,1.6-5.5,2.5-8.9,2.5s-6.4-.8-9-2.3c-2.7-1.6-4.7-3.8-6.2-6.6-1.5-2.9-2.2-6.2-2.2-9.9s.8-7,2.2-9.9c1.5-2.8,3.6-5,6.2-6.6,2.7-1.5,5.7-2.3,9-2.3s6.4.8,9,2.4h0ZM123.3,31c-1.2-2.2-2.8-4-4.9-5.2-2.1-1.2-4.4-1.8-6.9-1.8s-4.9.6-7,1.7c-2.1,1.2-3.7,2.9-4.9,5.1-1.2,2.2-1.8,4.8-1.8,7.9s.6,5.6,1.8,7.9c1.2,2.3,2.8,4,4.9,5.2,2.1,1.2,4.4,1.8,7,1.8s4.8-.6,6.9-1.8c2.1-1.2,3.7-2.9,4.9-5.2s1.8-4.8,1.8-7.8-.6-5.5-1.8-7.8h0Z"/>
        <path class="st0" d="M149.9,21.6c2.1-1.2,4.7-1.9,7.8-1.9v4.9h-1.3c-3.4,0-6.1.9-8.2,2.8s-3.1,4.9-3.1,9.2v20.4h-4.7V20.4h4.7v6.5c1-2.3,2.6-4,4.7-5.3h0Z"/>
        <path class="st0" d="M171.5,55.3c-2.8-1.5-4.9-3.7-6.5-6.6-1.6-2.8-2.4-6.2-2.4-10s.8-7.1,2.4-10,3.8-5,6.6-6.6c2.8-1.5,5.9-2.3,9.3-2.3s6.6.8,9.4,2.3c2.8,1.5,5,3.7,6.6,6.6s2.4,6.2,2.4,10-.8,7.1-2.4,9.9-3.8,5.1-6.6,6.6-5.9,2.3-9.4,2.3-6.5-.8-9.3-2.3h0ZM187.5,51.8c2.1-1.1,3.7-2.8,5-5s1.9-4.9,1.9-8.1-.6-5.9-1.9-8.1-2.9-3.9-5-5c-2.1-1.1-4.3-1.6-6.7-1.6s-4.6.5-6.7,1.6c-2.1,1.1-3.7,2.8-4.9,5s-1.8,4.9-1.8,8.1.6,5.9,1.8,8.1,2.9,3.9,4.9,5,4.3,1.6,6.7,1.6,4.6-.5,6.7-1.6h0Z"/>
        <path class="st0" d="M239.5,20.4v36.6h-4.7v-6.4c-1.1,2.3-2.7,4-5,5.2-2.2,1.2-4.7,1.8-7.5,1.8-4.4,0-7.9-1.3-10.7-4s-4.2-6.6-4.2-11.8v-21.4h4.6v20.9c0,4,1,7,3,9.1,2,2.1,4.7,3.2,8.1,3.2s6.3-1.1,8.4-3.3c2.1-2.2,3.1-5.5,3.1-9.9v-19.9h4.7Z"/>
        <path class="st0" d="M260.4,22.3c2.5-1.6,5.5-2.5,9-2.5s6.3.8,9,2.3c2.7,1.5,4.7,3.7,6.2,6.6,1.5,2.8,2.2,6.1,2.2,9.9s-.8,7.1-2.2,9.9-3.6,5.1-6.2,6.6c-2.7,1.6-5.6,2.3-9,2.3s-6.4-.8-9-2.5c-2.5-1.6-4.4-3.7-5.6-6.1v25.3h-4.6V20.4h4.6v8c1.2-2.5,3-4.5,5.5-6.1ZM280.3,30.8c-1.2-2.2-2.8-3.9-4.9-5.1s-4.4-1.7-7-1.7-4.8.6-6.9,1.8c-2.1,1.2-3.7,2.9-4.9,5.2-1.2,2.2-1.8,4.8-1.8,7.8s.6,5.5,1.8,7.8c1.2,2.2,2.9,4,4.9,5.2,2.1,1.2,4.4,1.8,6.9,1.8s4.9-.6,7-1.8c2-1.2,3.7-2.9,4.9-5.2,1.2-2.3,1.8-4.9,1.8-7.9s-.6-5.7-1.8-7.9h0Z"/>
      </g>
      <g>
        <path class="st0" d="M32.8,39.1l-9.2,9.2c-5.4,5.4-14.1,5.4-19.5,0-5.4-5.4-5.4-14.1,0-19.5,5.4-5.4,14.1-5.4,19.5,0l9.2,9.2c.3.3.3.8,0,1.1Z"/>
        <path class="st0" d="M48.3,73.1c-5.4,5.4-14.1,5.4-19.5,0-5.4-5.4-5.4-14.1,0-19.5l9.2-9.2c.3-.3.8-.3,1.1,0l9.2,9.2c5.4,5.4,5.4,14.1,0,19.5h0Z"/>
        <path class="st0" d="M73.1,48.3c-5.4,5.4-14.1,5.4-19.5,0l-9.2-9.2c-.3-.3-.3-.8,0-1.1l9.2-9.2c5.4-5.4,14.1-5.4,19.5,0,5.4,5.4,5.4,14.1,0,19.5h0Z"/>
        <path class="st0" d="M48.3,23.5l-9.2,9.2c-.3.3-.8.3-1.1,0l-9.2-9.2c-5.4-5.4-5.4-14.1,0-19.5,5.4-5.4,14.1-5.4,19.5,0,5.4,5.4,5.4,14.1,0,19.5Z"/>
      </g>
    </g>
  </g>
</svg>