<?xml version="1.0" encoding="UTF-8"?>
<svg id="Layer_2" xmlns="http://www.w3.org/2000/svg" version="1.1" viewBox="0 0 439.6 77.1">
  <!-- Generator: Adobe Illustrator 29.2.1, SVG Export Plug-In . SVG Version: 2.1.0 Build 116)  -->
  <defs>
    <style>
      .st0 {
        fill: #949494;
      }
    </style>
  </defs>
  <g id="Layer_1-2">
    <g>
      <g>
        <path class="st0" d="M94.3,28.4c1.5-2.9,3.5-5.1,6.1-6.7s5.4-2.4,8.6-2.4,5.2.6,7.3,1.7c2.1,1.1,3.7,2.5,5,4.2v-5.3h9.5v37.1h-9.4v-5.4c-1.2,1.7-2.9,3.2-5,4.3-2.1,1.1-4.6,1.7-7.3,1.7s-6-.8-8.6-2.4-4.6-3.9-6.1-6.8-2.2-6.3-2.2-10.1.8-7.1,2.2-10h0ZM120,32.6c-.9-1.6-2.1-2.9-3.6-3.8-1.5-.9-3.2-1.3-4.9-1.3s-3.3.4-4.8,1.3c-1.5.9-2.7,2.1-3.6,3.7-.9,1.6-1.4,3.6-1.4,5.8s.5,4.2,1.4,5.9c.9,1.7,2.1,3,3.6,3.8s3.1,1.3,4.8,1.3,3.4-.4,4.9-1.3c1.5-.9,2.7-2.1,3.6-3.8.9-1.6,1.3-3.6,1.3-5.9s-.4-4.2-1.3-5.9h0Z"/>
        <path class="st0" d="M154.1,21c1.9-1.1,4.2-1.7,6.7-1.7v9.9h-2.5c-2.9,0-5.2.7-6.7,2.1-1.5,1.4-2.2,3.8-2.2,7.2v18.5h-9.4V19.9h9.4v5.8c1.2-2,2.8-3.5,4.7-4.6h0Z"/>
        <path class="st0" d="M181.4,21c2.1-1.1,4.6-1.7,7.3-1.7s6,.8,8.6,2.4c2.6,1.6,4.6,3.8,6.1,6.7s2.2,6.2,2.2,10-.8,7.2-2.2,10.1-3.5,5.2-6.1,6.8-5.4,2.4-8.6,2.4-5.2-.5-7.3-1.6c-2.1-1.1-3.7-2.5-5-4.3v5.3h-9.4V7.4h9.4v17.9c1.2-1.8,2.9-3.2,5-4.4ZM194.7,32.5c-.9-1.6-2.1-2.9-3.6-3.7s-3.1-1.3-4.9-1.3-3.3.4-4.8,1.3c-1.5.9-2.7,2.1-3.6,3.8-.9,1.7-1.4,3.6-1.4,5.8s.5,4.2,1.4,5.8c.9,1.7,2.1,2.9,3.6,3.8,1.5.9,3.1,1.3,4.8,1.3s3.4-.5,4.9-1.3,2.7-2.2,3.6-3.8,1.4-3.6,1.4-5.9-.5-4.2-1.4-5.8h0Z"/>
        <path class="st0" d="M246.7,41.3h-27.1c.2,2.7,1.2,4.8,2.8,6.3,1.6,1.5,3.7,2.3,6.1,2.3,3.5,0,6-1.5,7.4-4.5h10.1c-1.1,3.6-3.1,6.5-6.2,8.8s-6.8,3.5-11.2,3.5-6.8-.8-9.6-2.4c-2.8-1.6-5.1-3.8-6.6-6.7-1.6-2.9-2.4-6.2-2.4-10s.8-7.2,2.4-10.1c1.6-2.9,3.8-5.1,6.6-6.7,2.8-1.6,6.1-2.4,9.7-2.4s6.7.8,9.5,2.3,5,3.7,6.5,6.5,2.3,6,2.3,9.6,0,2.5-.3,3.6h0ZM237.3,35c0-2.4-.9-4.3-2.6-5.8-1.7-1.5-3.8-2.2-6.2-2.2s-4.3.7-5.9,2.1-2.6,3.4-2.9,5.9h17.6,0Z"/>
        <path class="st0" d="M288.1,41.3h-27.1c.2,2.7,1.2,4.8,2.8,6.3,1.6,1.5,3.7,2.3,6.1,2.3,3.5,0,6-1.5,7.4-4.5h10.1c-1.1,3.6-3.1,6.5-6.2,8.8s-6.8,3.5-11.2,3.5-6.8-.8-9.6-2.4c-2.8-1.6-5.1-3.8-6.6-6.7-1.6-2.9-2.4-6.2-2.4-10s.8-7.2,2.4-10.1c1.6-2.9,3.7-5.1,6.6-6.7,2.8-1.6,6-2.4,9.7-2.4s6.7.8,9.5,2.3,5,3.7,6.5,6.5,2.3,6,2.3,9.6,0,2.5-.3,3.6h0ZM278.6,35c0-2.4-.9-4.3-2.6-5.8-1.7-1.5-3.8-2.2-6.2-2.2s-4.3.7-5.9,2.1-2.6,3.4-2.9,5.9h17.6Z"/>
        <path class="st0" d="M296,28.8c1.5-2.8,3.6-5,6.3-6.6,2.7-1.5,5.7-2.3,9.2-2.3s8.2,1.1,11.2,3.4c2.9,2.2,4.8,5.3,5.7,9.1h-5c-.6-2.6-2-4.7-4-6.2-2.1-1.5-4.7-2.2-7.7-2.2s-4.7.6-6.6,1.7-3.5,2.8-4.7,5c-1.1,2.2-1.7,4.9-1.7,8.1s.6,5.9,1.7,8.2c1.1,2.2,2.7,3.9,4.7,5s4.2,1.7,6.6,1.7,5.7-.8,7.7-2.2,3.4-3.6,4-6.3h5c-.9,3.8-2.8,6.8-5.7,9s-6.7,3.4-11.1,3.4-6.5-.8-9.2-2.3-4.8-3.7-6.3-6.6-2.3-6.2-2.3-10,.8-7.1,2.3-10h0Z"/>
        <path class="st0" d="M337.1,28.8c1.5-2.8,3.6-5,6.2-6.6,2.7-1.5,5.7-2.3,9-2.3s6.5.8,9,2.4c2.5,1.6,4.4,3.7,5.5,6.2v-8h4.7v36.6h-4.7v-8.1c-1.2,2.5-3,4.6-5.5,6.2-2.5,1.6-5.5,2.5-9,2.5s-6.3-.8-9-2.3c-2.7-1.6-4.7-3.8-6.2-6.6-1.5-2.9-2.2-6.2-2.2-9.9s.8-7,2.2-9.9h0ZM365,31c-1.2-2.2-2.9-4-4.9-5.2s-4.4-1.8-6.9-1.8-4.9.6-7,1.7c-2.1,1.2-3.7,2.9-4.9,5.1-1.2,2.2-1.8,4.8-1.8,7.9s.6,5.6,1.8,7.9c1.2,2.3,2.8,4,4.9,5.2,2,1.2,4.4,1.8,7,1.8s4.8-.6,6.9-1.8c2.1-1.2,3.7-2.9,4.9-5.2s1.8-4.8,1.8-7.8-.6-5.5-1.8-7.8h0Z"/>
        <path class="st0" d="M391.6,21.6c2.1-1.2,4.7-1.9,7.8-1.9v4.9h-1.3c-3.4,0-6.1.9-8.2,2.8s-3.1,4.9-3.1,9.2v20.4h-4.7V20.4h4.7v6.5c1-2.3,2.6-4,4.7-5.3h0Z"/>
        <path class="st0" d="M439.5,40.5h-30.4c.1,2.8.8,5.1,2,7.1,1.2,2,2.8,3.5,4.8,4.5,2,1,4.1,1.5,6.4,1.5s5.6-.7,7.7-2.2,3.5-3.5,4.1-6h5c-.9,3.6-2.8,6.5-5.7,8.8-2.9,2.3-6.6,3.4-11,3.4s-6.5-.8-9.2-2.3-4.9-3.7-6.4-6.6-2.3-6.2-2.3-10,.8-7.1,2.3-10c1.5-2.9,3.6-5.1,6.4-6.6,2.7-1.5,5.8-2.3,9.3-2.3s6.5.8,9.1,2.3,4.6,3.6,6,6.1,2.1,5.4,2.1,8.5,0,2.8-.1,3.7h0ZM433.2,29.8c-1.1-1.9-2.7-3.4-4.7-4.4-2-1-4.1-1.5-6.4-1.5-3.5,0-6.5,1.1-8.9,3.4-2.5,2.2-3.8,5.4-4.1,9.4h25.7c0-2.7-.5-5-1.6-7h0Z"/>
      </g>
      <g>
        <path class="st0" d="M32.8,39.1l-9.2,9.2c-5.4,5.4-14.1,5.4-19.5,0-5.4-5.4-5.4-14.1,0-19.5,5.4-5.4,14.1-5.4,19.5,0l9.2,9.2c.3.3.3.8,0,1.1Z"/>
        <path class="st0" d="M48.3,73.1c-5.4,5.4-14.1,5.4-19.5,0-5.4-5.4-5.4-14.1,0-19.5l9.2-9.2c.3-.3.8-.3,1.1,0l9.2,9.2c5.4,5.4,5.4,14.1,0,19.5h0Z"/>
        <path class="st0" d="M73.1,48.3c-5.4,5.4-14.1,5.4-19.5,0l-9.2-9.2c-.3-.3-.3-.8,0-1.1l9.2-9.2c5.4-5.4,14.1-5.4,19.5,0,5.4,5.4,5.4,14.1,0,19.5h0Z"/>
        <path class="st0" d="M48.3,23.5l-9.2,9.2c-.3.3-.8.3-1.1,0l-9.2-9.2c-5.4-5.4-5.4-14.1,0-19.5,5.4-5.4,14.1-5.4,19.5,0,5.4,5.4,5.4,14.1,0,19.5Z"/>
      </g>
    </g>
  </g>
</svg>