<?xml version="1.0" encoding="UTF-8"?>
<svg id="Layer_2" data-name="Layer 2" xmlns="http://www.w3.org/2000/svg" viewBox="0 0 286.79 77.12">
  <defs>
    <style>
      .cls-1 {
        fill: #1bc2fd;
      }

      .cls-2 {
        fill: #20cfca;
      }
    </style>
  </defs>
  <g id="Layer_1-2" data-name="Layer 1">
    <g>
      <g>
        <path class="cls-2" d="M119.56,22.32c2.55,1.61,4.38,3.64,5.5,6.1v-7.98h4.69v37.54c0,3.35-.73,6.32-2.18,8.91-1.45,2.59-3.48,4.59-6.07,6-2.59,1.41-5.54,2.11-8.85,2.11-4.69,0-8.59-1.12-11.7-3.35-3.11-2.23-5.04-5.27-5.8-9.12h4.62c.8,2.55,2.33,4.58,4.59,6.1,2.26,1.52,5.02,2.28,8.28,2.28,2.37,0,4.49-.5,6.37-1.51s3.35-2.49,4.42-4.46c1.07-1.97,1.61-4.29,1.61-6.97v-9.05c-1.16,2.5-3.01,4.57-5.53,6.2-2.53,1.63-5.51,2.45-8.95,2.45s-6.36-.78-9.01-2.35c-2.66-1.56-4.74-3.78-6.23-6.64-1.5-2.86-2.25-6.17-2.25-9.92s.75-7.05,2.25-9.88c1.5-2.84,3.57-5.03,6.23-6.57,2.66-1.54,5.66-2.31,9.01-2.31s6.43.8,8.98,2.41ZM123.25,30.96c-1.21-2.23-2.85-3.96-4.93-5.16-2.08-1.21-4.37-1.81-6.87-1.81s-4.92.58-6.97,1.74c-2.06,1.16-3.68,2.85-4.86,5.06-1.18,2.21-1.78,4.84-1.78,7.88s.59,5.62,1.78,7.88c1.18,2.26,2.8,3.98,4.86,5.16,2.05,1.18,4.38,1.78,6.97,1.78s4.79-.6,6.87-1.81c2.08-1.21,3.72-2.93,4.93-5.16,1.21-2.23,1.81-4.82,1.81-7.77s-.6-5.54-1.81-7.78Z"/>
        <path class="cls-2" d="M149.89,21.65c2.12-1.25,4.73-1.88,7.81-1.88v4.89h-1.27c-3.4,0-6.12.92-8.18,2.75-2.06,1.83-3.08,4.89-3.08,9.18v20.44h-4.69V20.44h4.69v6.5c1.03-2.28,2.6-4.04,4.73-5.29Z"/>
        <path class="cls-2" d="M171.47,55.26c-2.75-1.54-4.92-3.73-6.5-6.57-1.59-2.84-2.38-6.16-2.38-9.95s.8-7.12,2.41-9.95,3.8-5.03,6.57-6.57c2.77-1.54,5.88-2.31,9.32-2.31s6.56.77,9.35,2.31c2.79,1.54,4.98,3.73,6.57,6.57s2.38,6.15,2.38,9.95-.8,7.06-2.41,9.92-3.82,5.06-6.64,6.6-5.94,2.31-9.38,2.31-6.54-.77-9.28-2.31ZM187.46,51.84c2.05-1.1,3.72-2.75,4.99-4.96,1.27-2.21,1.91-4.93,1.91-8.14s-.63-5.93-1.88-8.14c-1.25-2.21-2.91-3.86-4.96-4.96-2.06-1.1-4.29-1.64-6.7-1.64s-4.65.55-6.7,1.64c-2.06,1.1-3.7,2.75-4.93,4.96-1.23,2.21-1.84,4.93-1.84,8.14s.61,5.93,1.84,8.14c1.23,2.21,2.86,3.87,4.89,4.96s4.26,1.64,6.67,1.64,4.65-.54,6.7-1.64Z"/>
        <path class="cls-2" d="M239.47,20.44v36.6h-4.69v-6.43c-1.07,2.28-2.73,4.02-4.96,5.23-2.23,1.21-4.74,1.81-7.51,1.81-4.38,0-7.95-1.35-10.72-4.05-2.77-2.7-4.16-6.62-4.16-11.76v-21.38h4.62v20.85c0,3.98.99,7.02,2.98,9.12,1.99,2.1,4.7,3.15,8.14,3.15s6.34-1.12,8.45-3.35c2.1-2.23,3.15-5.52,3.15-9.85v-19.91h4.69Z"/>
        <path class="cls-2" d="M260.35,22.35c2.52-1.63,5.53-2.45,9.01-2.45s6.29.77,8.95,2.31c2.66,1.54,4.74,3.73,6.23,6.57,1.5,2.84,2.25,6.13,2.25,9.88s-.75,7.06-2.25,9.92c-1.5,2.86-3.58,5.07-6.23,6.64-2.66,1.56-5.64,2.35-8.95,2.35s-6.43-.81-8.98-2.45c-2.55-1.63-4.4-3.67-5.56-6.13v25.34h-4.62V20.44h4.62v8.04c1.16-2.46,3-4.5,5.53-6.13ZM280.26,30.8c-1.18-2.21-2.8-3.9-4.86-5.06-2.06-1.16-4.38-1.74-6.97-1.74s-4.79.6-6.87,1.81c-2.08,1.21-3.72,2.93-4.93,5.16-1.21,2.23-1.81,4.83-1.81,7.78s.6,5.54,1.81,7.77c1.21,2.24,2.85,3.96,4.93,5.16,2.08,1.21,4.37,1.81,6.87,1.81s4.92-.59,6.97-1.78c2.05-1.18,3.67-2.9,4.86-5.16,1.18-2.26,1.78-4.88,1.78-7.88s-.59-5.66-1.78-7.88Z"/>
      </g>
      <g>
        <path class="cls-2" d="M32.75,39.11l-9.21,9.21c-5.38,5.38-14.11,5.37-19.5-.01-5.39-5.39-5.39-14.11-.01-19.5,5.39-5.39,14.11-5.39,19.51,0l9.2,9.2c.3.3.31.79.01,1.1Z"/>
        <path class="cls-1" d="M48.31,73.09c-5.38,5.38-14.11,5.37-19.5-.01-5.38-5.38-5.39-14.11-.01-19.5l9.21-9.21c.3-.3.79-.29,1.08,0l9.21,9.21c5.38,5.38,5.39,14.11,0,19.51Z"/>
        <path class="cls-2" d="M73.09,48.31c-5.39,5.39-14.13,5.38-19.51,0l-9.21-9.21c-.29-.29-.3-.78,0-1.08l9.21-9.21c5.38-5.38,14.13-5.38,19.51,0,5.38,5.38,5.38,14.13,0,19.51Z"/>
        <path class="cls-1" d="M48.32,23.55l-9.21,9.21c-.3.3-.79.29-1.1-.01l-9.2-9.2c-5.39-5.39-5.39-14.11,0-19.51,5.38-5.38,14.11-5.39,19.51,0,5.38,5.38,5.38,14.13,0,19.51Z"/>
      </g>
    </g>
  </g>
</svg>