<?xml version="1.0" encoding="UTF-8"?>
<svg id="Layer_2" xmlns="http://www.w3.org/2000/svg" version="1.1" viewBox="0 0 427.8 77.1">
  <!-- Generator: Adobe Illustrator 29.2.1, SVG Export Plug-In . SVG Version: 2.1.0 Build 116)  -->
  <defs>
    <style>
      .st0 {
        fill: #949494;
      }
    </style>
  </defs>
  <g id="Layer_1-2">
    <g>
      <g>
        <path class="st0" d="M105.4,22.3c2.5-1.6,5.5-2.4,8.9-2.4s6.3.8,9,2.3,4.7,3.7,6.2,6.6,2.2,6.1,2.2,9.9-.8,7.1-2.2,9.9c-1.5,2.9-3.6,5.1-6.2,6.6-2.7,1.6-5.6,2.3-8.9,2.3s-6.5-.8-9-2.4c-2.5-1.6-4.4-3.7-5.5-6.2v8h-4.6V7.4h4.6v21.1c1.2-2.5,3.1-4.6,5.6-6.2h0ZM125.3,30.8c-1.2-2.2-2.8-3.9-4.9-5.1s-4.4-1.7-7-1.7-4.8.6-6.9,1.8c-2.1,1.2-3.7,2.9-4.9,5.2-1.2,2.2-1.8,4.8-1.8,7.8s.6,5.5,1.8,7.8c1.2,2.2,2.8,4,4.9,5.2,2.1,1.2,4.4,1.8,6.9,1.8s4.9-.6,7-1.8c2.1-1.2,3.7-2.9,4.9-5.2,1.2-2.3,1.8-4.9,1.8-7.9s-.6-5.7-1.8-7.9h0Z"/>
        <path class="st0" d="M140.4,12.5c-.7-.7-1-1.5-1-2.5s.3-1.8,1-2.4c.7-.7,1.5-1,2.4-1s1.7.3,2.4,1c.7.6,1,1.5,1,2.4s-.3,1.8-1,2.5-1.5,1-2.4,1-1.7-.3-2.4-1ZM145.2,20.4v36.6h-4.7V20.4h4.7Z"/>
        <path class="st0" d="M162.6,55.3c-2.8-1.5-4.9-3.7-6.5-6.6-1.6-2.8-2.4-6.2-2.4-10s.8-7.1,2.4-10c1.6-2.8,3.8-5,6.6-6.6,2.8-1.5,5.9-2.3,9.3-2.3s6.6.8,9.4,2.3c2.8,1.5,5,3.7,6.6,6.6,1.6,2.8,2.4,6.2,2.4,10s-.8,7.1-2.4,9.9-3.8,5.1-6.6,6.6c-2.8,1.5-5.9,2.3-9.4,2.3s-6.5-.8-9.3-2.3h0ZM178.6,51.8c2.1-1.1,3.7-2.8,5-5s1.9-4.9,1.9-8.1-.6-5.9-1.9-8.1-2.9-3.9-5-5c-2.1-1.1-4.3-1.6-6.7-1.6s-4.6.5-6.7,1.6c-2.1,1.1-3.7,2.8-4.9,5s-1.8,4.9-1.8,8.1.6,5.9,1.8,8.1,2.9,3.9,4.9,5c2,1.1,4.3,1.6,6.7,1.6s4.6-.5,6.7-1.6h0Z"/>
        <path class="st0" d="M252.9,23.8c2.7,2.7,4.1,6.6,4.1,11.8v21.5h-4.6v-20.9c0-4-1-7-2.9-9.1-1.9-2.1-4.5-3.1-7.8-3.1s-6.2,1.1-8.2,3.4c-2.1,2.3-3.1,5.6-3.1,9.9v19.8h-4.6v-20.9c0-4-1-7-2.9-9.1-1.9-2.1-4.6-3.1-7.9-3.1s-6.2,1.1-8.2,3.4c-2.1,2.3-3.1,5.6-3.1,9.9v19.8h-4.7V20.4h4.7v6.3c1.2-2.3,2.8-4,5-5.2s4.5-1.8,7.2-1.8,5.9.8,8.3,2.3,4.1,3.8,5.2,6.7c1-2.9,2.7-5.1,5.1-6.7s5.1-2.3,8.1-2.3,7.8,1.4,10.5,4.1h0Z"/>
        <path class="st0" d="M267.5,28.8c1.5-2.8,3.6-5,6.2-6.6,2.7-1.5,5.7-2.3,9-2.3s6.5.8,9,2.4c2.5,1.6,4.4,3.7,5.5,6.2v-8h4.7v36.6h-4.7v-8.1c-1.2,2.5-3,4.6-5.5,6.2-2.5,1.6-5.5,2.5-9,2.5s-6.3-.8-9-2.3c-2.7-1.6-4.7-3.8-6.2-6.6-1.5-2.9-2.2-6.2-2.2-9.9s.8-7,2.2-9.9h0ZM295.4,31c-1.2-2.2-2.9-4-4.9-5.2s-4.4-1.8-6.9-1.8-4.9.6-7,1.7c-2.1,1.2-3.7,2.9-4.9,5.1-1.2,2.2-1.8,4.8-1.8,7.9s.6,5.6,1.8,7.9c1.2,2.3,2.8,4,4.9,5.2,2,1.2,4.4,1.8,7,1.8s4.8-.6,6.9-1.8c2.1-1.2,3.7-2.9,4.9-5.2s1.8-4.8,1.8-7.8-.6-5.5-1.8-7.8h0Z"/>
        <path class="st0" d="M322,21.6c2.1-1.2,4.7-1.9,7.8-1.9v4.9h-1.3c-3.4,0-6.1.9-8.2,2.8s-3.1,4.9-3.1,9.2v20.4h-4.7V20.4h4.7v6.5c1-2.3,2.6-4,4.7-5.3h0Z"/>
        <path class="st0" d="M336.8,12.5c-.7-.7-1-1.5-1-2.5s.3-1.8,1-2.4c.7-.7,1.5-1,2.4-1s1.7.3,2.4,1c.7.6,1,1.5,1,2.4s-.3,1.8-1,2.5-1.5,1-2.4,1-1.7-.3-2.4-1ZM341.5,20.4v36.6h-4.7V20.4h4.7Z"/>
        <path class="st0" d="M380.1,23.8c2.8,2.7,4.2,6.6,4.2,11.8v21.5h-4.6v-20.9c0-4-1-7-3-9.1-2-2.1-4.7-3.1-8.1-3.1s-6.4,1.1-8.5,3.4-3.1,5.5-3.1,9.9v20h-4.7V20.4h4.7v6.2c1.2-2.2,2.8-3.9,5-5.1,2.2-1.2,4.7-1.8,7.4-1.8,4.4,0,8,1.4,10.7,4.1h0Z"/>
        <path class="st0" d="M427.6,40.5h-30.4c.1,2.8.8,5.1,2,7.1,1.2,2,2.8,3.5,4.8,4.5,2,1,4.1,1.5,6.4,1.5s5.6-.7,7.7-2.2,3.5-3.5,4.1-6h5c-.9,3.6-2.8,6.5-5.7,8.8-2.9,2.3-6.6,3.4-11,3.4s-6.5-.8-9.2-2.3-4.9-3.7-6.4-6.6-2.3-6.2-2.3-10,.8-7.1,2.3-10c1.5-2.9,3.6-5.1,6.4-6.6,2.7-1.5,5.8-2.3,9.3-2.3s6.5.8,9.1,2.3,4.6,3.6,6,6.1,2.1,5.4,2.1,8.5,0,2.8-.1,3.7ZM421.4,29.8c-1.1-1.9-2.7-3.4-4.7-4.4-2-1-4.1-1.5-6.4-1.5-3.5,0-6.5,1.1-8.9,3.4-2.5,2.2-3.8,5.4-4.1,9.4h25.7c0-2.7-.5-5-1.6-7h0Z"/>
      </g>
      <g>
        <path class="st0" d="M32.8,39.1l-9.2,9.2c-5.4,5.4-14.1,5.4-19.5,0-5.4-5.4-5.4-14.1,0-19.5,5.4-5.4,14.1-5.4,19.5,0l9.2,9.2c.3.3.3.8,0,1.1Z"/>
        <path class="st0" d="M48.3,73.1c-5.4,5.4-14.1,5.4-19.5,0-5.4-5.4-5.4-14.1,0-19.5l9.2-9.2c.3-.3.8-.3,1.1,0l9.2,9.2c5.4,5.4,5.4,14.1,0,19.5h0Z"/>
        <path class="st0" d="M73.1,48.3c-5.4,5.4-14.1,5.4-19.5,0l-9.2-9.2c-.3-.3-.3-.8,0-1.1l9.2-9.2c5.4-5.4,14.1-5.4,19.5,0,5.4,5.4,5.4,14.1,0,19.5h0Z"/>
        <path class="st0" d="M48.3,23.5l-9.2,9.2c-.3.3-.8.3-1.1,0l-9.2-9.2c-5.4-5.4-5.4-14.1,0-19.5,5.4-5.4,14.1-5.4,19.5,0,5.4,5.4,5.4,14.1,0,19.5Z"/>
      </g>
    </g>
  </g>
</svg>