<?xml version="1.0" encoding="UTF-8"?>
<svg id="Layer_2" data-name="Layer 2" xmlns="http://www.w3.org/2000/svg" viewBox="0 0 345.04 77.12">
  <defs>
    <style>
      .cls-1 {
        fill: #1bc2fd;
      }

      .cls-2 {
        fill: #20cfca;
      }
    </style>
  </defs>
  <g id="Layer_1-2" data-name="Layer 1">
    <g>
      <g>
        <path class="cls-2" d="M95.33,28.79c1.5-2.84,3.57-5.03,6.23-6.57,2.66-1.54,5.66-2.31,9.01-2.31s6.49.8,9.01,2.41c2.52,1.61,4.35,3.67,5.46,6.17v-8.04h4.69v36.6h-4.69v-8.11c-1.16,2.5-3.01,4.57-5.53,6.2-2.53,1.63-5.53,2.45-9.02,2.45s-6.29-.78-8.95-2.35c-2.66-1.56-4.74-3.78-6.23-6.64-1.5-2.86-2.25-6.17-2.25-9.92s.75-7.05,2.25-9.89ZM123.25,30.96c-1.21-2.23-2.85-3.95-4.93-5.16-2.08-1.21-4.37-1.81-6.87-1.81s-4.92.58-6.97,1.74c-2.06,1.16-3.68,2.85-4.86,5.06-1.18,2.21-1.78,4.84-1.78,7.88s.59,5.62,1.78,7.88c1.18,2.26,2.8,3.98,4.86,5.16,2.05,1.18,4.38,1.78,6.97,1.78s4.79-.6,6.87-1.81c2.08-1.21,3.72-2.93,4.93-5.16,1.21-2.23,1.81-4.83,1.81-7.77s-.6-5.54-1.81-7.78Z"/>
        <path class="cls-2" d="M140.61,28.79c1.52-2.84,3.61-5.03,6.27-6.57,2.66-1.54,5.66-2.31,9.02-2.31s6.43.82,8.98,2.45c2.55,1.63,4.36,3.68,5.43,6.13v-8.04h4.69v53.89h-4.69v-25.34c-1.07,2.46-2.89,4.5-5.46,6.13-2.57,1.63-5.6,2.45-9.08,2.45s-6.29-.78-8.95-2.35c-2.66-1.56-4.74-3.78-6.23-6.64-1.5-2.86-2.25-6.17-2.25-9.92s.76-7.05,2.28-9.89ZM168.49,30.96c-1.21-2.23-2.85-3.95-4.93-5.16-2.08-1.21-4.37-1.81-6.87-1.81s-4.92.58-6.97,1.74c-2.06,1.16-3.68,2.85-4.86,5.06-1.18,2.21-1.78,4.84-1.78,7.88s.59,5.62,1.78,7.88c1.18,2.26,2.8,3.98,4.86,5.16,2.05,1.18,4.38,1.78,6.97,1.78s4.79-.6,6.87-1.81c2.08-1.21,3.72-2.93,4.93-5.16,1.21-2.23,1.81-4.83,1.81-7.77s-.6-5.54-1.81-7.78Z"/>
        <path class="cls-2" d="M217.42,20.44v36.6h-4.69v-6.43c-1.07,2.28-2.73,4.02-4.96,5.23-2.23,1.21-4.74,1.81-7.51,1.81-4.38,0-7.95-1.35-10.72-4.06-2.77-2.7-4.16-6.62-4.16-11.76v-21.38h4.62v20.84c0,3.98.99,7.02,2.98,9.12,1.99,2.1,4.7,3.15,8.14,3.15s6.34-1.12,8.45-3.35c2.1-2.23,3.15-5.52,3.15-9.85v-19.91h4.69Z"/>
        <path class="cls-2" d="M228.25,28.79c1.5-2.84,3.57-5.03,6.23-6.57,2.66-1.54,5.66-2.31,9.01-2.31s6.49.8,9.01,2.41c2.52,1.61,4.35,3.67,5.46,6.17v-8.04h4.69v36.6h-4.69v-8.11c-1.16,2.5-3.01,4.57-5.53,6.2-2.53,1.63-5.53,2.45-9.02,2.45s-6.29-.78-8.95-2.35c-2.66-1.56-4.74-3.78-6.23-6.64-1.5-2.86-2.25-6.17-2.25-9.92s.75-7.05,2.25-9.89ZM256.16,30.96c-1.21-2.23-2.85-3.95-4.93-5.16-2.08-1.21-4.37-1.81-6.87-1.81s-4.92.58-6.97,1.74c-2.06,1.16-3.68,2.85-4.86,5.06-1.18,2.21-1.78,4.84-1.78,7.88s.59,5.62,1.78,7.88c1.18,2.26,2.8,3.98,4.86,5.16,2.05,1.18,4.38,1.78,6.97,1.78s4.79-.6,6.87-1.81c2.08-1.21,3.72-2.93,4.93-5.16,1.21-2.23,1.81-4.83,1.81-7.77s-.6-5.54-1.81-7.78Z"/>
        <path class="cls-2" d="M279.49,24.4v22.72c0,2.24.42,3.78,1.27,4.62.85.85,2.35,1.27,4.49,1.27h4.29v4.02h-5.03c-3.31,0-5.76-.77-7.37-2.31-1.61-1.54-2.41-4.08-2.41-7.61v-22.72h-5.09v-3.95h5.09v-9.18h4.76v9.18h10.05v3.95h-10.05Z"/>
        <path class="cls-2" d="M297.18,12.53c-.67-.67-1-1.5-1-2.48s.33-1.8,1-2.45c.67-.65,1.47-.97,2.41-.97s1.74.33,2.41.97c.67.65,1,1.46,1,2.45s-.33,1.81-1,2.48c-.67.67-1.47,1-2.41,1s-1.74-.33-2.41-1ZM301.94,20.44v36.6h-4.69V20.44h4.69Z"/>
        <path class="cls-2" d="M312.73,28.79c1.52-2.84,3.62-5.03,6.3-6.57,2.68-1.54,5.74-2.31,9.18-2.31,4.51,0,8.23,1.12,11.16,3.35,2.93,2.24,4.81,5.27,5.66,9.12h-5.03c-.63-2.64-1.98-4.7-4.05-6.2-2.08-1.5-4.66-2.25-7.74-2.25-2.46,0-4.67.56-6.64,1.68-1.97,1.12-3.52,2.78-4.66,4.99-1.14,2.21-1.71,4.93-1.71,8.14s.57,5.94,1.71,8.18c1.14,2.24,2.69,3.91,4.66,5.03,1.97,1.12,4.18,1.68,6.64,1.68,3.08,0,5.66-.75,7.74-2.25,2.08-1.5,3.43-3.59,4.05-6.27h5.03c-.85,3.75-2.75,6.77-5.7,9.05-2.95,2.28-6.66,3.42-11.13,3.42-3.44,0-6.5-.77-9.18-2.31-2.68-1.54-4.78-3.73-6.3-6.57-1.52-2.84-2.28-6.16-2.28-9.95s.76-7.12,2.28-9.95Z"/>
      </g>
      <g>
        <path class="cls-2" d="M32.75,39.11l-9.21,9.21c-5.38,5.38-14.11,5.37-19.5-.01-5.39-5.39-5.39-14.11-.01-19.5,5.39-5.39,14.11-5.39,19.51,0l9.2,9.2c.3.3.31.79.01,1.1Z"/>
        <path class="cls-1" d="M48.31,73.09c-5.38,5.38-14.11,5.37-19.5-.01-5.38-5.38-5.39-14.11-.01-19.5l9.21-9.21c.3-.3.79-.29,1.08,0l9.21,9.21c5.38,5.38,5.39,14.11,0,19.51Z"/>
        <path class="cls-2" d="M73.09,48.31c-5.39,5.39-14.13,5.38-19.51,0l-9.21-9.21c-.29-.29-.3-.78,0-1.08l9.21-9.21c5.38-5.38,14.13-5.38,19.51,0,5.38,5.38,5.38,14.13,0,19.51Z"/>
        <path class="cls-1" d="M48.32,23.55l-9.21,9.21c-.3.3-.79.29-1.1-.01l-9.2-9.2c-5.39-5.39-5.39-14.11,0-19.51,5.38-5.38,14.11-5.39,19.51,0,5.38,5.38,5.38,14.13,0,19.51Z"/>
      </g>
    </g>
  </g>
</svg>