<svg width="212" height="211" viewBox="0 0 212 211" fill="none" xmlns="http://www.w3.org/2000/svg">
<path d="M89.6145 107.007L64.4158 132.205C49.6961 146.925 25.8108 146.898 11.0637 132.178C-3.68335 117.431 -3.68335 93.573 11.0364 78.8259C25.7834 64.0789 49.6414 64.0789 64.4158 78.8259L89.5871 103.997C90.4079 104.818 90.4353 106.159 89.6145 107.007Z" fill="#093C4B"/>
<path d="M132.188 199.973C117.468 214.692 93.5828 214.665 78.8357 199.945C64.116 185.225 64.0886 161.34 78.8083 146.593L104.007 121.394C104.828 120.574 106.168 120.601 106.962 121.394L132.16 146.593C146.88 161.313 146.908 185.198 132.16 199.973H132.188Z" fill="#093C4B"/>
<path d="M199.987 132.169C185.24 146.916 161.327 146.889 146.608 132.169L121.409 106.971C120.616 106.177 120.588 104.837 121.409 104.016L146.608 78.8171C161.327 64.0974 185.267 64.0974 199.987 78.8171C214.707 93.5368 214.707 117.477 199.987 132.197V132.169Z" fill="#093C4B"/>
<path d="M132.215 64.4295L107.017 89.6281C106.196 90.4489 104.855 90.4216 104.007 89.6008L78.8357 64.4295C64.0886 49.6824 64.0886 25.8245 78.8357 11.05C93.5554 -3.66967 117.441 -3.69703 132.215 11.05C146.935 25.7698 146.935 49.7098 132.215 64.4295Z" fill="#093C4B"/>
</svg>
