<?xml version="1.0" encoding="UTF-8"?>
<svg id="Layer_2" xmlns="http://www.w3.org/2000/svg" version="1.1" viewBox="0 0 345 77.1">
  <!-- Generator: Adobe Illustrator 29.2.1, SVG Export Plug-In . SVG Version: 2.1.0 Build 116)  -->
  <defs>
    <style>
      .st0 {
        fill: #949494;
      }
    </style>
  </defs>
  <g id="Layer_1-2">
    <g>
      <g>
        <path class="st0" d="M95.3,28.8c1.5-2.8,3.6-5,6.2-6.6,2.7-1.5,5.7-2.3,9-2.3s6.5.8,9,2.4c2.5,1.6,4.3,3.7,5.5,6.2v-8h4.7v36.6h-4.7v-8.1c-1.2,2.5-3,4.6-5.5,6.2-2.5,1.6-5.5,2.5-9,2.5s-6.3-.8-8.9-2.3c-2.7-1.6-4.7-3.8-6.2-6.6-1.5-2.9-2.2-6.2-2.2-9.9s.8-7,2.2-9.9h0ZM123.2,31c-1.2-2.2-2.8-4-4.9-5.2s-4.4-1.8-6.9-1.8-4.9.6-7,1.7c-2.1,1.2-3.7,2.9-4.9,5.1-1.2,2.2-1.8,4.8-1.8,7.9s.6,5.6,1.8,7.9c1.2,2.3,2.8,4,4.9,5.2,2.1,1.2,4.4,1.8,7,1.8s4.8-.6,6.9-1.8c2.1-1.2,3.7-2.9,4.9-5.2s1.8-4.8,1.8-7.8-.6-5.5-1.8-7.8h0Z"/>
        <path class="st0" d="M140.6,28.8c1.5-2.8,3.6-5,6.3-6.6,2.7-1.5,5.7-2.3,9-2.3s6.4.8,9,2.5c2.6,1.6,4.4,3.7,5.4,6.1v-8h4.7v53.9h-4.7v-25.3c-1.1,2.5-2.9,4.5-5.5,6.1s-5.6,2.5-9.1,2.5-6.3-.8-8.9-2.3c-2.7-1.6-4.7-3.8-6.2-6.6-1.5-2.9-2.2-6.2-2.2-9.9s.8-7,2.3-9.9h0ZM168.5,31c-1.2-2.2-2.9-4-4.9-5.2-2.1-1.2-4.4-1.8-6.9-1.8s-4.9.6-7,1.7c-2.1,1.2-3.7,2.9-4.9,5.1-1.2,2.2-1.8,4.8-1.8,7.9s.6,5.6,1.8,7.9c1.2,2.3,2.8,4,4.9,5.2,2.1,1.2,4.4,1.8,7,1.8s4.8-.6,6.9-1.8c2.1-1.2,3.7-2.9,4.9-5.2,1.2-2.2,1.8-4.8,1.8-7.8s-.6-5.5-1.8-7.8h0Z"/>
        <path class="st0" d="M217.4,20.4v36.6h-4.7v-6.4c-1.1,2.3-2.7,4-5,5.2-2.2,1.2-4.7,1.8-7.5,1.8-4.4,0-7.9-1.3-10.7-4.1-2.8-2.7-4.2-6.6-4.2-11.8v-21.4h4.6v20.8c0,4,1,7,3,9.1,2,2.1,4.7,3.2,8.1,3.2s6.3-1.1,8.4-3.3c2.1-2.2,3.1-5.5,3.1-9.9v-19.9h4.7Z"/>
        <path class="st0" d="M228.2,28.8c1.5-2.8,3.6-5,6.2-6.6,2.7-1.5,5.7-2.3,9-2.3s6.5.8,9,2.4c2.5,1.6,4.3,3.7,5.5,6.2v-8h4.7v36.6h-4.7v-8.1c-1.2,2.5-3,4.6-5.5,6.2-2.5,1.6-5.5,2.5-9,2.5s-6.3-.8-8.9-2.3c-2.7-1.6-4.7-3.8-6.2-6.6-1.5-2.9-2.2-6.2-2.2-9.9s.8-7,2.2-9.9h0ZM256.2,31c-1.2-2.2-2.9-4-4.9-5.2-2.1-1.2-4.4-1.8-6.9-1.8s-4.9.6-7,1.7c-2.1,1.2-3.7,2.9-4.9,5.1-1.2,2.2-1.8,4.8-1.8,7.9s.6,5.6,1.8,7.9c1.2,2.3,2.8,4,4.9,5.2,2.1,1.2,4.4,1.8,7,1.8s4.8-.6,6.9-1.8c2.1-1.2,3.7-2.9,4.9-5.2s1.8-4.8,1.8-7.8-.6-5.5-1.8-7.8h0Z"/>
        <path class="st0" d="M279.5,24.4v22.7c0,2.2.4,3.8,1.3,4.6.9.8,2.4,1.3,4.5,1.3h4.3v4h-5c-3.3,0-5.8-.8-7.4-2.3s-2.4-4.1-2.4-7.6v-22.7h-5.1v-4h5.1v-9.2h4.8v9.2h10v4h-10Z"/>
        <path class="st0" d="M297.2,12.5c-.7-.7-1-1.5-1-2.5s.3-1.8,1-2.4c.7-.7,1.5-1,2.4-1s1.7.3,2.4,1c.7.6,1,1.5,1,2.4s-.3,1.8-1,2.5-1.5,1-2.4,1-1.7-.3-2.4-1ZM301.9,20.4v36.6h-4.7V20.4h4.7Z"/>
        <path class="st0" d="M312.7,28.8c1.5-2.8,3.6-5,6.3-6.6,2.7-1.5,5.7-2.3,9.2-2.3s8.2,1.1,11.2,3.4c2.9,2.2,4.8,5.3,5.7,9.1h-5c-.6-2.6-2-4.7-4-6.2-2.1-1.5-4.7-2.2-7.7-2.2s-4.7.6-6.6,1.7-3.5,2.8-4.7,5c-1.1,2.2-1.7,4.9-1.7,8.1s.6,5.9,1.7,8.2c1.1,2.2,2.7,3.9,4.7,5s4.2,1.7,6.6,1.7,5.7-.8,7.7-2.2,3.4-3.6,4-6.3h5c-.9,3.8-2.8,6.8-5.7,9s-6.7,3.4-11.1,3.4-6.5-.8-9.2-2.3-4.8-3.7-6.3-6.6-2.3-6.2-2.3-10,.8-7.1,2.3-10h0Z"/>
      </g>
      <g>
        <path class="st0" d="M32.8,39.1l-9.2,9.2c-5.4,5.4-14.1,5.4-19.5,0-5.4-5.4-5.4-14.1,0-19.5,5.4-5.4,14.1-5.4,19.5,0l9.2,9.2c.3.3.3.8,0,1.1Z"/>
        <path class="st0" d="M48.3,73.1c-5.4,5.4-14.1,5.4-19.5,0-5.4-5.4-5.4-14.1,0-19.5l9.2-9.2c.3-.3.8-.3,1.1,0l9.2,9.2c5.4,5.4,5.4,14.1,0,19.5h0Z"/>
        <path class="st0" d="M73.1,48.3c-5.4,5.4-14.1,5.4-19.5,0l-9.2-9.2c-.3-.3-.3-.8,0-1.1l9.2-9.2c5.4-5.4,14.1-5.4,19.5,0,5.4,5.4,5.4,14.1,0,19.5h0Z"/>
        <path class="st0" d="M48.3,23.5l-9.2,9.2c-.3.3-.8.3-1.1,0l-9.2-9.2c-5.4-5.4-5.4-14.1,0-19.5,5.4-5.4,14.1-5.4,19.5,0,5.4,5.4,5.4,14.1,0,19.5Z"/>
      </g>
    </g>
  </g>
</svg>