<svg width="60" height="60" viewBox="0 0 60 60" fill="none" xmlns="http://www.w3.org/2000/svg">
<path d="M23.5377 6.05399C24.1197 6.29399 24.4137 6.80999 24.6357 7.33199C25.0437 8.30399 25.7217 8.81999 26.7717 8.87999C27.0177 8.89199 27.2577 8.98799 27.4977 9.04799C28.5057 9.29999 28.8117 10.266 28.1397 11.064C27.7797 11.49 27.4197 11.928 27.0237 12.324C26.7657 12.588 26.7117 12.852 26.7597 13.206C26.8437 13.758 26.8857 14.322 26.9097 14.88C26.9577 15.9 26.1537 16.458 25.1997 16.074C24.6357 15.846 24.0897 15.582 23.5197 15.366C23.3397 15.3 23.0937 15.3 22.9197 15.366C22.3377 15.582 21.7737 15.858 21.1977 16.086C20.2737 16.452 19.4697 15.882 19.5177 14.886C19.5477 14.298 19.6557 13.71 19.6677 13.116C19.6677 12.87 19.5777 12.576 19.4277 12.372C19.0737 11.898 18.6537 11.478 18.2697 11.022C17.6157 10.248 17.9457 9.27599 18.9237 9.03599C19.1517 8.98199 19.3797 8.89199 19.6077 8.88599C20.7237 8.83799 21.4137 8.25599 21.8397 7.24799C22.0497 6.74999 22.3437 6.28199 22.8777 6.04199H23.5317L23.5377 6.05399ZM20.9517 14.67C21.5217 14.43 22.0437 14.232 22.5477 13.992C23.0037 13.776 23.4357 13.77 23.8917 13.986C24.4017 14.226 24.9297 14.43 25.4997 14.67C25.4457 14.1 25.4157 13.602 25.3437 13.11C25.2537 12.51 25.3917 12.012 25.8237 11.574C26.1897 11.208 26.5077 10.8 26.9037 10.356C26.2857 10.218 25.7697 10.086 25.2537 9.98999C24.7257 9.89399 24.3477 9.62999 24.0897 9.14999C23.8317 8.66999 23.5317 8.20799 23.2197 7.69199C22.8957 8.23799 22.6017 8.69399 22.3437 9.17399C22.0917 9.63599 21.7197 9.88799 21.2157 9.98999C20.6877 10.092 20.1597 10.224 19.5537 10.362C19.9437 10.812 20.2737 11.226 20.6397 11.598C21.0297 12 21.1797 12.45 21.1137 13.002C21.0477 13.542 21.0117 14.082 20.9577 14.682L20.9517 14.67Z" fill="#20CFCA"/>
<path d="M24.0177 44.736C24.0177 43.326 24.0537 41.958 24.0057 40.59C23.9697 39.594 24.5577 38.724 25.8057 38.784C27.0657 38.844 28.3317 38.796 29.5917 38.796C31.0917 38.796 31.4757 39.138 31.6257 40.59C33.5877 40.956 35.1297 40.2 35.6457 38.424C36.5217 35.388 37.4757 32.376 38.2857 29.322C38.7057 27.738 40.4697 26.934 41.8977 28.38C42.6657 29.154 43.0377 30.072 43.0317 31.152C43.0257 32.682 43.0317 34.206 43.0317 35.736C43.0317 36.702 43.3617 37.032 44.3157 37.032C46.5477 37.032 48.7737 37.02 51.0057 37.044C52.8777 37.062 54.1497 38.802 53.5497 40.524C53.4117 40.914 53.1537 41.256 52.9257 41.676C53.3577 42.174 53.6937 42.792 53.6877 43.548C53.6877 44.304 53.4057 44.94 52.8897 45.474C53.9757 47.154 53.9757 47.868 52.8897 49.41C53.3817 49.968 53.6997 50.604 53.6817 51.378C53.6517 52.764 52.5597 53.958 51.1737 53.958C48.0417 53.958 44.9037 53.94 41.7717 53.868C40.5357 53.838 39.3417 53.472 38.2137 52.962C36.1077 52.014 33.8877 52.026 31.6617 52.11C31.2837 53.328 30.9237 53.586 29.6337 53.586C28.3257 53.586 27.0117 53.586 25.7037 53.586C24.5937 53.586 24.0117 52.986 24.0117 51.87C24.0117 49.998 24.0117 48.132 24.0117 46.188C23.8017 46.188 23.6217 46.188 23.4417 46.188C19.6977 46.188 15.9597 46.188 12.2157 46.188C10.4637 46.188 9.12571 45.186 8.69971 43.596C8.50771 42.876 8.59767 42.174 8.80167 41.478C10.2837 36.474 13.5357 33.294 18.5937 31.974C18.6657 31.956 18.7377 31.926 18.8877 31.872C18.7197 31.746 18.5877 31.65 18.4617 31.554C15.6177 29.436 14.6037 25.644 16.0617 22.488C16.1757 22.242 16.4577 21.972 16.7097 21.912C17.2677 21.774 17.6157 22.38 17.3577 22.992C16.9137 24.03 16.7277 25.098 16.8597 26.232C17.1897 29.118 19.6257 31.452 22.5117 31.608C25.5057 31.77 28.1817 29.79 28.8417 26.928C29.4237 24.408 28.3977 21.846 26.2197 20.412C24.1257 19.032 21.3597 19.116 19.2837 20.628C19.1217 20.748 18.9477 20.88 18.7617 20.922C18.4197 21 18.1497 20.856 17.9937 20.532C17.8257 20.178 17.9457 19.89 18.2277 19.662C19.0797 18.978 20.0397 18.498 21.0957 18.246C25.4397 17.214 29.6577 19.986 30.2997 24.408C30.7497 27.51 29.5677 29.988 26.9997 31.794C26.8857 31.872 26.7657 31.944 26.5977 32.058C26.8557 32.142 27.0537 32.208 27.2577 32.268C29.8917 33.09 32.1417 34.518 33.9837 36.57C34.3437 36.972 34.3737 37.344 34.0797 37.644C33.7677 37.968 33.3417 37.944 32.9817 37.542C32.0937 36.564 31.1097 35.718 29.9817 35.022C27.8757 33.726 25.5837 33.078 23.1177 33.006C20.9337 32.94 18.7857 33.096 16.7637 34.038C13.2477 35.676 11.0217 38.388 10.0737 42.138C9.71966 43.554 10.6197 44.76 12.0597 44.766C15.9597 44.784 19.8537 44.772 23.7537 44.766C23.8137 44.766 23.8737 44.754 23.9997 44.736H24.0177ZM31.6317 50.67C32.2497 50.67 32.8137 50.682 33.3717 50.67C35.3337 50.61 37.1937 51.018 39.0177 51.738C39.9597 52.11 40.9917 52.404 41.9937 52.446C44.9697 52.56 47.9457 52.536 50.9217 52.56C51.7377 52.56 52.2717 52.068 52.2777 51.336C52.2777 50.604 51.7677 50.112 50.9397 50.094C50.2677 50.082 49.6017 50.094 48.9297 50.088C48.3777 50.082 48.0597 49.824 48.0537 49.398C48.0477 48.966 48.3657 48.696 48.9117 48.69C49.5957 48.684 50.2857 48.702 50.9697 48.684C51.7857 48.66 52.2957 48.15 52.2777 47.412C52.2597 46.704 51.7317 46.224 50.9397 46.212C50.2977 46.206 49.6617 46.212 49.0197 46.212C48.3837 46.212 48.0537 45.978 48.0477 45.522C48.0417 45.054 48.3837 44.808 49.0437 44.808C49.7157 44.808 50.3877 44.82 51.0537 44.808C51.7977 44.79 52.3077 44.226 52.2717 43.5C52.2357 42.864 51.7617 42.384 51.0777 42.36C50.3157 42.336 49.5477 42.36 48.7857 42.342C48.4017 42.336 48.0777 42.132 48.0777 41.748C48.0777 41.502 48.2817 41.232 48.4617 41.028C48.5457 40.932 48.7857 40.956 48.9537 40.95C49.6377 40.944 50.3277 40.968 51.0117 40.938C51.8637 40.902 52.3857 40.272 52.2597 39.48C52.1637 38.862 51.6417 38.46 50.8917 38.46C48.5997 38.454 46.3077 38.46 44.0157 38.448C43.1577 38.448 42.4377 38.1 42.0297 37.35C41.7897 36.906 41.6577 36.354 41.6397 35.844C41.5917 34.302 41.6157 32.76 41.6217 31.212C41.6217 30.414 41.3697 29.742 40.7277 29.25C40.2477 28.878 39.8877 28.992 39.7017 29.562C39.6717 29.652 39.6477 29.742 39.6177 29.832C38.7417 32.832 37.8657 35.838 36.9837 38.838C36.4377 40.686 35.0517 41.868 33.1617 42.06C32.6577 42.114 32.1417 42.066 31.6137 42.066V50.688L31.6317 50.67ZM25.4637 40.218C25.4457 40.314 25.4277 40.362 25.4277 40.404C25.4277 44.202 25.4277 48.006 25.4157 51.804C25.4157 52.152 25.5837 52.17 25.8477 52.17C27.1737 52.164 28.4937 52.17 29.8197 52.17C29.9397 52.17 30.0537 52.146 30.1677 52.128V40.224H25.4637V40.218Z" fill="#20CFCA"/>
<path d="M7.58383 15.0479C7.60783 14.7359 7.58377 14.4179 7.66777 14.1179C7.82977 13.4939 7.6678 13.0079 7.1818 12.5879C6.9598 12.3959 6.77982 12.1559 6.59382 11.9219C6.01182 11.2019 6.32378 10.3019 7.22978 10.0859C7.65578 9.98389 8.08777 9.92389 8.50177 9.78589C8.72377 9.70789 8.95177 9.53989 9.09577 9.34789C9.35977 8.98789 9.55179 8.56789 9.79779 8.18989C10.2778 7.44589 11.2018 7.43989 11.6878 8.18989C11.9518 8.59189 12.1678 9.02989 12.4438 9.42589C12.5578 9.58789 12.7558 9.72589 12.9418 9.77989C13.3858 9.91189 13.8538 9.97789 14.3038 10.0979C15.1918 10.3259 15.4798 11.2019 14.9098 11.9159C14.7658 12.0959 14.6278 12.2999 14.4418 12.4379C13.7698 12.9539 13.6978 13.6259 13.8478 14.3879C13.8898 14.5979 13.9078 14.8199 13.9078 15.0359C13.9258 15.8999 13.1458 16.5119 12.4018 16.0919C11.2618 15.4499 10.2418 15.4619 9.10778 16.0919C8.36978 16.5059 7.55977 15.8759 7.59577 15.0419L7.58383 15.0479ZM10.6738 9.34189C10.2658 10.6739 9.34177 11.2919 7.96777 11.3699C9.08377 12.2279 9.3838 13.2959 8.9818 14.5859C9.6538 14.3639 10.2058 14.0459 10.7638 14.0399C11.3098 14.0399 11.8558 14.3639 12.5278 14.5859C12.0598 13.2479 12.4618 12.2219 13.5358 11.4119C12.8698 11.2079 12.2398 11.1659 11.8078 10.8479C11.3578 10.5179 11.0998 9.92989 10.6738 9.34189Z" fill="#20CFCA"/>
<path d="M32.0159 14.4662C32.3759 13.6322 31.8419 12.8222 31.0559 12.0242C30.2699 11.2262 30.5939 10.2362 31.6979 10.0802C32.8199 9.9182 33.5639 9.4322 34.0559 8.3762C34.5419 7.3382 35.6279 7.3382 36.1199 8.3642C36.6119 9.3842 37.3079 9.8942 38.4299 10.0622C39.6359 10.2422 39.9299 11.2082 39.0719 12.0842C38.3459 12.8222 37.8959 13.5782 38.2199 14.6342C38.2619 14.7662 38.2439 14.9102 38.2439 15.0542C38.2439 15.8882 37.5419 16.4042 36.7499 16.1162C36.1799 15.9062 35.6339 15.4802 35.0699 15.4802C34.5299 15.4802 33.9839 15.8942 33.4379 16.1162C32.6699 16.4282 31.7459 15.8342 32.0159 14.4602V14.4662ZM33.3719 14.6222C34.5299 13.8602 35.6399 13.8422 36.7979 14.6162C36.4319 13.2782 36.7679 12.2282 37.8539 11.3582C36.4379 11.3102 35.5739 10.6262 35.0759 9.3302C34.6319 10.6742 33.7079 11.2862 32.3219 11.3642C33.4319 12.2222 33.7319 13.2842 33.3779 14.6222H33.3719Z" fill="#20CFCA"/>
</svg>
