<svg width="60" height="60" viewBox="0 0 60 60" fill="none" xmlns="http://www.w3.org/2000/svg">
<path d="M6.00023 8.95991C6.45023 7.85991 7.81023 7.40991 8.88023 7.11991C9.53023 6.93991 10.7002 6.45991 10.9202 7.36991C11.0402 7.85991 10.7002 8.09991 10.2902 8.23991C9.38023 8.53991 8.36023 8.60991 7.51023 9.14991C7.47023 9.31991 7.56023 9.32991 7.66023 9.40991C8.99023 10.4299 14.6302 10.9399 16.4302 11.0099C19.9702 11.1499 24.0502 11.0499 27.5202 10.4199C28.7102 10.1999 30.0302 9.94991 31.0502 9.27991C31.0902 9.08991 30.9702 9.14991 30.8702 9.09991C27.6202 7.31991 20.4202 7.42991 16.7102 7.54991C15.7402 7.57991 14.7802 7.62991 13.8202 7.63991C13.0002 7.23991 13.2102 6.36991 14.1102 6.24991C18.0502 5.71991 27.2302 5.96991 30.8602 7.50991C31.6902 7.85991 32.4602 8.28991 32.5502 9.27991C32.6002 9.88991 32.6202 11.4899 32.5002 12.0499C32.3502 12.7499 31.6702 13.0399 31.1402 13.3999V14.9399C32.4002 14.7499 33.6602 14.5099 34.9302 14.3799C39.5702 13.9199 46.7902 13.9199 51.2402 15.2699C52.1902 15.5599 53.7302 16.0999 53.8602 17.2299C53.9202 17.7599 53.9402 19.6199 53.8402 20.1099C53.7302 20.6299 52.9702 21.2399 52.4702 21.4099L52.4502 21.5299V30.1299C52.4702 30.3899 52.7702 30.3799 52.9202 30.5099C54.0902 31.5099 53.7702 33.1399 52.4502 33.7899V35.8299C52.5002 36.0799 53.0502 36.2699 53.2802 36.5899C54.0802 37.7299 53.4902 38.8699 52.4702 39.5799C52.3702 40.3199 52.5402 41.1799 52.4502 41.8999C52.3302 42.9299 51.0502 42.4799 51.0502 42.0799V40.0699C45.9602 41.6299 40.5002 42.0299 35.2202 41.2699C33.4802 41.0199 31.7802 40.5899 30.1102 40.0699V48.8599C36.8502 50.5199 44.2702 50.5499 51.0102 48.8599C51.3102 48.0099 50.3702 44.9699 52.0902 45.5299C52.7202 45.7399 52.3102 46.6299 52.5002 46.8999C52.6302 47.0799 53.6702 47.0799 53.8402 47.9899C53.9302 48.5099 53.9302 50.3099 53.8502 50.8599C53.6702 52.2099 51.3502 52.7799 50.2302 53.0399C47.9802 53.5599 45.5502 53.7599 43.2402 53.8099L43.0102 53.9099H38.1502L34.5502 53.6299C33.6302 53.4799 32.7002 53.3899 31.7902 53.2099C30.5302 52.9699 27.5202 52.3999 27.3102 50.8599C27.2302 50.2999 27.2302 48.6299 27.3102 48.0699C27.4202 47.3099 28.1002 47.1099 28.7002 46.8499V45.0299C27.7502 45.1599 26.8002 45.3699 25.8402 45.4899C21.1502 46.0499 15.3102 46.0299 10.6602 45.1799C9.07023 44.8899 6.82023 44.4999 5.99023 42.9799V39.7999C6.30023 39.1699 6.76023 38.9999 7.40023 38.8099V31.4499C5.85023 30.6999 5.79023 28.5899 7.40023 27.8699L7.30023 25.6399C6.19023 25.1699 5.86023 23.5699 6.66023 22.6599C6.88023 22.4199 7.38023 22.2699 7.40023 22.0899V13.4899C7.34023 13.2299 6.93023 13.1399 6.71023 12.9599C6.36023 12.6799 6.17023 12.4599 5.99023 12.0399V8.95991H6.00023ZM31.1402 10.9199C29.6102 11.4499 28.0202 11.8099 26.4102 12.0299C21.3102 12.7299 13.6702 12.7299 8.71023 11.3399C8.36023 11.2399 7.82023 10.9599 7.54023 10.9199C7.32023 10.8899 7.38023 11.3799 7.39023 11.5299C7.44023 11.9699 8.25023 12.2099 8.63023 12.3499C10.9702 13.1699 14.6602 13.4599 17.1602 13.5399C20.6702 13.6599 26.8002 13.5199 30.0402 12.2999C30.8002 12.0099 31.3202 11.8699 31.1402 10.9199ZM12.9202 14.5699L8.81023 13.9199V22.2399L12.9202 23.3599V14.5699ZM29.7402 13.9099L25.6302 14.5599V23.3499L28.7002 22.5899V21.3999C28.2002 21.2299 27.4402 20.6199 27.3302 20.0999C27.2402 19.6599 27.2402 17.5999 27.3102 17.1399C27.4802 16.0799 28.9202 15.6699 29.7302 15.2599V13.8999L29.7402 13.9099ZM24.2302 14.7499C21.8502 14.9499 19.4702 14.9599 17.0802 14.9399L14.3302 14.7499V23.5399C17.6102 23.9399 20.9602 23.9399 24.2402 23.5399V14.7499H24.2302ZM39.9102 15.5299C37.2402 15.5499 31.4102 15.8399 29.1102 17.0699C29.0202 17.1199 28.7802 17.2399 28.8502 17.3699C29.0902 17.9099 32.5702 18.5599 33.2602 18.6599C37.7802 19.3299 43.3902 19.3299 47.9102 18.6599C48.4702 18.5799 52.3602 17.8599 52.3602 17.3199C51.9202 16.8999 51.1902 16.7199 50.6102 16.5499C47.4302 15.6599 43.2202 15.4899 39.9102 15.5199V15.5299ZM52.4502 18.9599C50.2402 19.7999 47.8402 20.1599 45.4902 20.3599C41.0702 20.7299 35.2802 20.6799 30.9602 19.6599C30.1802 19.4799 29.5602 19.1699 28.8502 18.9599C28.6102 18.8899 28.7002 19.6699 28.7602 19.7999C28.8702 20.0299 29.8502 20.3799 30.1402 20.4799C34.8102 22.0499 45.9402 21.9799 50.6802 20.5999C51.5402 20.3499 52.7502 20.1099 52.4602 18.9599H52.4502ZM34.2302 22.6999L30.1202 21.9499V30.2199C31.3602 30.8699 32.8602 31.1099 34.2302 31.3899V22.6999ZM51.0502 21.9499L46.9402 22.6999V31.3899L51.0502 30.3599V21.9499ZM45.5402 22.7899C42.2602 23.0799 38.9102 23.0799 35.6302 22.7899V31.5299C35.9002 31.7099 36.4302 31.7199 36.8002 31.7599C37.7802 31.8699 39.0902 31.9399 40.0702 31.9499C41.8902 31.9699 43.7202 31.7499 45.5402 31.6699V22.7899ZM28.7102 24.0999C22.0302 25.6799 14.5902 25.8199 8.09023 23.4399C7.34023 23.6799 7.43023 24.1599 8.09023 24.4899C11.6602 26.2799 18.2702 26.6599 22.2202 26.3399C24.4102 26.1599 26.5902 25.6899 28.7102 25.1199V24.0999ZM28.7102 26.5299C22.3102 28.3699 15.1402 28.3199 8.80023 26.2499V27.8899C9.72023 28.3399 10.7802 28.6199 11.7702 28.8399C16.2102 29.8199 22.3202 29.8399 26.7602 28.8399C27.4002 28.6899 28.1302 28.5399 28.7102 28.2599V26.5299ZM28.7102 29.7999C27.7902 30.0299 26.8602 30.2599 25.9202 30.4199C21.1802 31.2499 15.1202 31.1799 10.4602 29.9599C9.88023 29.8099 8.49023 29.2099 8.06023 29.1899C7.63023 29.1699 7.39023 29.7599 7.81023 30.0799C8.39023 30.5199 10.7202 31.1299 11.5202 31.3199C16.0402 32.3899 21.7602 32.4699 26.2902 31.4499C26.6002 31.3799 27.5602 31.1899 27.7602 31.0499C27.8702 30.9699 27.9902 30.7199 28.1402 30.5899C28.4402 30.3099 28.8302 30.3899 28.7002 29.7999H28.7102ZM29.2502 31.5899C28.1002 32.3999 30.4602 32.9899 31.0702 33.1899C36.7602 35.0099 45.0002 34.9699 50.6302 32.9799C50.9802 32.8599 52.2502 32.4799 52.2602 32.0899C52.2602 31.8299 51.9502 31.4899 51.6702 31.5799C45.3802 33.7499 37.7502 33.9299 31.3302 32.1799C30.8902 32.0599 29.5702 31.4899 29.2502 31.5899ZM8.80023 32.0499V40.8399C10.0502 41.1499 11.3202 41.4099 12.6002 41.5699C16.8402 42.1199 21.7002 42.1099 25.9402 41.5699C26.8702 41.4499 27.7802 41.2499 28.7102 41.1099V39.5899C27.2202 38.6399 27.1202 36.7999 28.7002 35.9099V33.7399C28.1402 33.5799 27.8602 33.0499 27.5302 32.6099C21.3902 34.0299 14.8302 33.8799 8.80023 32.0399V32.0499ZM51.0502 36.0599V34.2799C44.3802 36.4999 36.8202 36.3999 30.1102 34.3699V36.0499C35.0102 37.6799 40.4502 37.9899 45.5702 37.3499C47.4402 37.1099 49.2702 36.6499 51.0502 36.0499V36.0599ZM52.1502 38.0999C52.4102 37.8299 52.1502 37.2499 51.7702 37.2799C49.8002 37.9899 47.7602 38.5099 45.6702 38.7599C41.0002 39.3299 35.8602 39.1399 31.3102 37.8999C30.8302 37.7699 29.7902 37.2899 29.4002 37.2699C29.0102 37.2499 28.7402 37.8099 29.0102 38.0899C29.0702 38.1499 29.5902 38.3799 29.7302 38.4399C34.9602 40.7799 43.9102 40.6399 49.3602 39.0999C49.7902 38.9799 51.9402 38.2999 52.1402 38.0899L52.1502 38.0999ZM28.7102 42.5099C28.0602 42.6099 27.4302 42.7799 26.7802 42.8699C22.7902 43.4299 18.2902 43.5099 14.2702 43.1599C11.9502 42.9599 9.57023 42.5999 7.40023 41.7599C7.12023 42.9499 8.28023 43.1399 9.18023 43.3999C13.7202 44.7099 21.0602 44.6699 25.7602 44.0899C26.7202 43.9699 27.6802 43.7599 28.6302 43.5899L28.7202 42.5099H28.7102ZM52.4502 49.8999C51.2002 50.3499 49.9602 50.7699 48.6402 50.9899C44.8302 51.6399 38.8102 51.6199 34.9302 51.2999C32.8602 51.1299 30.7602 50.7299 28.8502 49.8999C28.6302 49.8299 28.6902 50.3899 28.7002 50.5099C28.7502 50.9199 29.7102 51.2399 30.0902 51.3699C34.8602 52.9799 45.5502 52.8699 50.4102 51.5599C50.8302 51.4499 52.3702 51.0199 52.4502 50.6099C52.4902 50.3999 52.4302 50.1299 52.4502 49.9099V49.8999Z" fill="#20CFCA"/>
<path d="M43.1691 23.038C43.4321 22.9879 43.5699 23.0631 43.7828 23.2008C44.4465 23.639 46.0996 27.3953 46.1121 28.2342C46.1622 30.4879 43.3695 31.7776 41.5536 30.3377C39.5999 28.7851 41.1027 26.018 42.0796 24.3026C42.305 23.902 42.6807 23.1257 43.1691 23.038ZM43.4321 25.8177C43.1691 25.7551 43.2442 25.8427 43.1691 25.9679C42.9687 26.2935 42.305 27.8836 42.3175 28.2217C42.3426 29.048 43.3069 29.5614 43.9581 28.9854C44.8973 28.1591 43.6325 26.7567 43.4321 25.8177Z" fill="#20CFCA"/>
<path d="M17.2831 13.2222C17.521 13.4476 18.2975 14.9626 18.4728 15.3633C18.9487 16.3775 19.5749 17.7047 19.2743 18.8316C18.7108 20.9476 15.8179 21.5486 14.4653 19.8458C13.3132 18.3933 14.0646 16.9034 14.7283 15.4509C15.1291 14.587 16.1184 12.1079 17.2831 13.2348V13.2222ZM16.7321 15.764C16.4566 15.7014 16.5442 15.8015 16.4691 15.9142C15.9807 16.6655 14.9287 18.8817 16.4315 19.0444C18.4353 19.2573 17.1579 16.678 16.7195 15.764H16.7321Z" fill="#20CFCA"/>
</svg>
