<svg width="60" height="60" viewBox="0 0 60 60" fill="none" xmlns="http://www.w3.org/2000/svg">
<path d="M6.04791 26.5383C6.10191 26.4123 6.15591 26.2863 6.19791 26.1603C6.57591 25.0983 7.3079 24.4383 8.4299 24.2883C8.8019 24.2403 8.94591 24.0843 9.04191 23.7363C9.58791 21.7083 10.4279 19.8063 11.5199 18.0123C11.8319 17.5023 12.1859 17.3703 12.5819 17.6283C12.9599 17.8683 13.0199 18.2403 12.7259 18.7263C11.6879 20.4423 10.9019 22.2663 10.3499 24.1923C10.2719 24.4623 10.2779 24.6423 10.5539 24.8043C10.7579 24.9303 10.9619 25.1163 11.0819 25.3263C11.2979 25.6923 11.5439 25.7043 11.9339 25.6263C14.5079 25.0983 17.1059 24.8343 19.7279 24.7923C20.0339 24.7923 20.2139 24.6963 20.3999 24.4263C21.0539 23.4483 22.0079 23.0223 23.1779 23.1783C23.5139 23.2263 23.6759 23.1243 23.8619 22.8723C25.1399 21.1503 26.5859 19.5843 28.1939 18.1683C28.4279 17.9643 28.5119 17.8023 28.4099 17.4663C28.2839 17.0343 28.2659 16.5483 28.2839 16.0923C28.2959 15.8463 28.2479 15.7323 28.0439 15.6123C25.8779 14.3643 23.5919 13.3863 21.1499 12.6783C20.7239 13.3983 20.1359 13.9263 19.3079 14.1303C18.4799 14.3343 17.6999 14.2083 16.8899 13.6803C16.2779 14.3163 15.6659 14.9763 15.0239 15.6063C14.8499 15.7743 14.5739 15.9543 14.3639 15.9363C14.1479 15.9183 13.8539 15.7083 13.7699 15.5103C13.6919 15.3183 13.7579 14.9583 13.9019 14.8023C14.4899 14.1423 15.1259 13.5123 15.7619 12.9003C15.9539 12.7143 16.0079 12.5763 15.9179 12.3063C15.4979 11.0343 15.9299 9.79229 17.0039 9.06029C18.0959 8.31629 19.3979 8.38829 20.4539 9.27629C20.6399 9.43829 20.7719 9.44429 20.9819 9.33629C24.7799 7.46429 28.7939 6.74429 32.9999 7.08029C35.7239 7.30229 38.3339 7.98629 40.8059 9.18029C41.0699 9.30629 41.2499 9.33029 41.5079 9.13229C42.4739 8.38829 43.6739 8.35829 44.6939 9.01229C45.7319 9.67829 46.2359 10.8543 45.9479 12.0423C45.8759 12.3483 45.8999 12.5463 46.1579 12.7203C46.2479 12.7803 46.3259 12.8583 46.4039 12.9363C46.9379 13.5183 47.4359 13.8843 48.3779 13.6503C49.5059 13.3683 50.4359 13.9983 51.0359 14.9823C51.6299 15.9603 51.6239 16.9743 51.0059 17.9403C50.8259 18.2223 50.8259 18.4023 50.9879 18.6783C53.4419 23.0583 54.3539 27.7623 53.7719 32.7363C53.1119 38.3823 50.6279 43.1103 46.4819 46.9803C46.2959 47.1543 46.2539 47.2923 46.3319 47.5443C46.7159 48.8223 46.2899 50.0283 45.2339 50.7543C44.1719 51.4803 42.9059 51.4323 41.8559 50.6043C41.6639 50.4483 41.5259 50.4543 41.3219 50.5623C37.4699 52.5063 33.3839 53.2563 29.0939 52.9083C26.2259 52.6743 23.4839 51.9303 20.9159 50.6163C20.6099 50.4603 20.4119 50.4723 20.1299 50.6643C19.1639 51.3303 17.9459 51.2943 16.9739 50.6163C16.0019 49.9323 15.5519 48.7983 15.8339 47.6703C15.9059 47.3763 15.8579 47.2023 15.6299 46.9923C11.3159 42.9483 8.84991 37.9803 8.26191 32.0883C8.19591 31.4523 8.20192 30.8103 8.15392 30.1743C8.14192 30.0423 8.08191 29.8323 7.99191 29.8023C6.94791 29.4363 6.35393 28.6743 6.02393 27.6603C6.02393 27.2883 6.02393 26.9103 6.02393 26.5383H6.04791ZM21.9599 28.7223C21.9179 28.7523 21.8999 28.7583 21.8939 28.7643C19.3559 33.9543 18.3839 39.4383 18.8879 45.1863C18.8999 45.3123 19.0859 45.4803 19.2239 45.5163C19.8299 45.6843 20.3639 45.9663 20.7419 46.4643C20.9399 46.7283 21.1019 46.7523 21.3959 46.6383C24.8339 45.3303 28.0619 43.6383 31.0619 41.5143C34.3139 39.2103 37.1759 36.4983 39.6779 33.3963C39.8279 33.2103 39.8459 33.0723 39.7199 32.8683C39.3899 32.3343 39.2699 31.7343 39.3599 31.1163C39.4079 30.7803 39.2759 30.6603 39.0059 30.5283C35.4359 28.7703 31.6919 27.5463 27.7799 26.8383C27.0359 26.7063 26.2859 26.6103 25.5539 26.5023C24.9899 28.2783 23.7179 29.0403 21.9539 28.7223H21.9599ZM42.3779 34.3443C41.9879 34.2783 41.6699 34.2903 41.4119 34.1703C41.0459 34.0023 40.8719 34.1343 40.6499 34.4103C37.3439 38.5023 33.4319 41.8983 28.9079 44.5803C26.6519 45.9183 24.2939 47.0403 21.8399 47.9643C21.6779 48.0243 21.4859 48.1743 21.4379 48.3243C21.3479 48.6123 21.3539 48.9303 21.3179 49.2423C21.3779 49.2783 21.4259 49.3143 21.4799 49.3383C27.8459 52.3683 34.2179 52.3743 40.5899 49.3683C40.8239 49.2603 40.8899 49.1403 40.8599 48.8703C40.6919 47.3223 41.4539 46.1703 42.9119 45.6603C43.0499 45.6123 43.2119 45.3963 43.2239 45.2523C43.2959 44.1303 43.3319 43.0143 43.3739 41.8923C43.3919 41.4183 43.6559 41.1363 44.0819 41.1363C44.5019 41.1363 44.7839 41.4243 44.7719 41.9043C44.7419 43.0563 44.7239 44.2143 44.6159 45.3603C44.5739 45.8343 44.9099 45.8283 45.1259 46.0023C45.3599 46.1943 45.4859 46.0083 45.6299 45.8763C47.6519 43.9983 49.2539 41.8143 50.4539 39.3303C50.5919 39.0423 50.5679 38.8743 50.3399 38.6463C48.5399 36.8643 46.6139 35.2383 44.5319 33.7983C44.3639 33.6843 44.2319 33.4503 43.9319 33.6543C43.6259 33.8583 43.7159 34.0803 43.7699 34.3323C43.9919 35.4123 44.2319 36.4923 44.4179 37.5843C44.5139 38.1363 44.0699 38.4963 43.5659 38.3763C43.1519 38.2743 43.0799 37.9443 43.0139 37.5963C42.8099 36.5103 42.5939 35.4303 42.3779 34.3563V34.3443ZM16.6619 46.0863C17.4659 45.8883 17.5139 45.4083 17.4539 44.7843C17.2019 41.9403 17.3699 39.1203 17.9039 36.3123C18.4319 33.5403 19.3019 30.8883 20.5199 28.3503C20.5919 28.2003 20.6639 27.9783 20.6039 27.8463C20.3579 27.3003 20.0699 26.7783 19.7639 26.1963C19.7999 26.1963 19.7399 26.1843 19.6799 26.1963C17.1239 26.4783 14.5739 26.7663 12.0179 27.0483C11.7299 27.0783 11.6879 27.2463 11.6699 27.4863C11.5919 28.3503 11.1539 29.0103 10.4219 29.4603C10.1639 29.6223 9.87591 29.7363 9.53391 29.9043C9.89391 36.2103 12.1739 41.6463 16.6679 46.0863H16.6619ZM45.0599 13.5963C43.4219 14.6403 42.0659 14.4123 40.8179 12.9423C40.7459 12.8583 40.5179 12.8283 40.3919 12.8643C38.1899 13.5243 36.1079 14.4543 34.1099 15.5943C33.8579 15.7383 33.8459 15.9003 33.8459 16.1583C33.8519 16.5903 33.8459 17.0343 33.7259 17.4423C33.6239 17.7903 33.6959 17.9643 33.9479 18.1863C36.9899 20.8863 39.4259 24.0543 41.2559 27.6843C41.5499 28.2663 41.7899 28.7523 42.5819 28.6503C42.8279 28.6203 42.9839 28.6503 43.1339 28.3983C44.8259 25.5123 46.1699 22.4763 47.1539 19.2783C47.2319 19.0323 47.2079 18.9003 46.9799 18.7383C46.3799 18.3183 46.0259 17.7303 45.8699 17.0163C45.6899 16.2123 45.8819 15.4803 46.3019 14.7663C45.8759 14.3703 45.4739 13.9863 45.0479 13.5963H45.0599ZM51.2459 37.3923C51.2219 37.4283 51.2519 37.3923 51.2699 37.3563C51.3239 37.2123 51.3779 37.0683 51.4319 36.9183C52.0139 35.1963 52.3679 33.4323 52.4879 31.6203C52.7819 27.3123 51.9299 23.2563 49.8299 19.4763C49.7519 19.3383 49.5179 19.1463 49.4579 19.1763C49.1459 19.3323 48.6599 19.0563 48.5039 19.6323C48.2639 20.5023 47.9519 21.3483 47.6399 22.1943C46.7579 24.5763 45.6599 26.8623 44.3759 29.0583C44.2979 29.1963 44.2259 29.4543 44.2979 29.5383C44.9699 30.3663 45.1199 31.2963 44.9219 32.1783C47.0699 33.9423 49.1579 35.6643 51.2459 37.3863V37.3923ZM24.8099 23.9463C25.0559 24.3423 25.2059 24.8343 25.5359 25.0383C25.8899 25.2543 26.4059 25.1943 26.8559 25.2663C31.3619 25.9623 35.6699 27.3063 39.7559 29.3283C39.8999 29.4003 40.1399 29.3823 40.2719 29.3043C40.3439 29.2623 40.3319 28.9683 40.2719 28.8363C38.4659 25.1223 36.0179 21.8883 32.9339 19.1403C32.7359 18.9663 32.5979 18.9483 32.3639 19.0683C31.6859 19.4283 30.9239 19.5783 30.2519 19.2363C29.5319 18.8703 29.1179 19.1283 28.6799 19.6203C28.5659 19.7463 28.4279 19.8543 28.3079 19.9743C27.0299 21.2043 25.8479 22.5303 24.8159 23.9523L24.8099 23.9463ZM33.1199 14.5563C35.1959 13.3323 37.3559 12.3543 39.6359 11.6223C40.1279 11.4663 40.3999 11.1163 40.4519 10.5723C40.2419 10.4703 40.0199 10.3563 39.7919 10.2603C37.3799 9.17429 34.8479 8.58029 32.2079 8.44829C28.5239 8.26229 25.0199 8.94629 21.7019 10.5663C21.5639 10.6323 21.4079 10.8543 21.4199 10.9923C21.4319 11.1303 21.6119 11.3103 21.7559 11.3823C22.0019 11.5083 22.2839 11.5623 22.5539 11.6463C24.8159 12.3723 26.9579 13.3563 28.9979 14.5503C30.4439 13.3263 31.9859 13.5603 33.1199 14.5563ZM10.2839 27.0963C10.2899 26.2683 9.67191 25.6323 8.85591 25.6323C8.11191 25.6323 7.46392 26.2743 7.44592 27.0363C7.42792 27.8283 8.0399 28.4943 8.8139 28.5123C9.6479 28.5303 10.2719 27.9303 10.2779 27.0963H10.2839ZM22.7699 27.3963C23.5739 27.3963 24.1799 26.7843 24.1919 25.9743C24.1979 25.2003 23.5499 24.5463 22.7699 24.5403C21.9899 24.5403 21.3299 25.1763 21.3239 25.9503C21.3179 26.7723 21.9479 27.4023 22.7699 27.3963ZM43.5839 31.4643C43.5899 30.6303 42.9779 30.0003 42.1559 30.0063C41.3999 30.0063 40.7699 30.6423 40.7519 31.4043C40.7339 32.2143 41.3819 32.8983 42.1679 32.8923C42.9719 32.8923 43.5779 32.2743 43.5899 31.4643H43.5839ZM17.1719 11.4123C17.1719 12.1923 17.8199 12.8463 18.5939 12.8463C19.3679 12.8463 20.0219 12.1923 20.0159 11.4123C20.0159 10.5963 19.4219 9.98429 18.6179 9.97229C17.7899 9.96029 17.1719 10.5783 17.1719 11.4123ZM31.0379 15.1143C30.2639 15.1203 29.6219 15.7863 29.6339 16.5663C29.6459 17.3463 30.3119 18.0063 31.0739 17.9943C31.8719 17.9763 32.4899 17.3583 32.4899 16.5603C32.4899 15.7383 31.8599 15.1143 31.0379 15.1203V15.1143ZM45.0779 48.4143C45.0719 47.5983 44.4719 46.9983 43.6619 46.9983C42.8339 46.9983 42.2279 47.6103 42.2339 48.4503C42.2399 49.2363 42.8759 49.8603 43.6739 49.8543C44.4599 49.8483 45.0839 49.2063 45.0779 48.4143ZM43.2239 9.96629C42.4379 9.96629 41.7899 10.5963 41.7899 11.3763C41.7899 12.2043 42.4079 12.8343 43.2239 12.8283C44.0279 12.8223 44.6279 12.2163 44.6399 11.4003C44.6459 10.6203 44.0099 9.97229 43.2239 9.96629ZM18.5879 46.8543C17.8199 46.8543 17.1779 47.5143 17.1719 48.2943C17.1719 49.0983 17.8319 49.7583 18.6239 49.7403C19.3979 49.7283 20.0279 49.0683 20.0219 48.2823C20.0099 47.5083 19.3499 46.8483 18.5879 46.8483V46.8543ZM47.2139 16.4403C47.2139 17.2683 47.8379 17.8863 48.6659 17.8743C49.4219 17.8623 50.0459 17.2323 50.0519 16.4643C50.0639 15.6663 49.4459 15.0243 48.6659 15.0123C47.8319 15.0003 47.2139 15.6123 47.2139 16.4403Z" fill="#20CFCA"/>
</svg>
