<svg width="22" height="22" viewBox="0 0 22 22" fill="none" xmlns="http://www.w3.org/2000/svg">
<path d="M11.4046 0.601562L12.3384 0.742227C18.0143 2.35199 18.711 7.73785 15.8814 12.3793L15.135 13.5203H18.1153C18.1402 13.5203 18.2727 13.5929 18.2996 13.6198L21.378 21.0608C21.3912 21.2548 21.2902 21.3213 21.1358 21.4011H0.619141V20.9948C0.84918 20.7338 1.06145 19.2921 1.5916 19.6755C1.91152 19.9071 1.43113 20.4895 1.39 20.7917H3.45781L4.51203 18.1917H2.46453C2.30863 18.3765 2.22434 18.993 1.99684 19.0621C1.68605 19.1565 1.52355 18.9305 1.61039 18.636C2.33098 17.1095 2.83117 15.3606 3.57207 13.858C3.63098 13.7387 3.72238 13.5198 3.88285 13.5198H6.8632L6.11672 12.3787C4.5948 9.88184 3.78484 6.97156 5.16609 4.20195C6.15938 2.21133 8.29066 0.744258 10.5291 0.639141L10.5936 0.601562H11.4046ZM10.7068 1.22262C8.85281 1.31961 7.09832 2.30984 6.07609 3.85512C3.24402 8.13648 6.94191 13.2593 10.0655 16.1818C10.2843 16.3869 10.6276 16.7271 10.8566 16.8917C10.9039 16.9257 10.9475 16.9709 11.0125 16.9648C11.0775 16.9587 11.8357 16.2711 11.9525 16.162C14.5291 13.7463 17.5643 9.76352 16.8184 6.00316C16.2521 3.14875 13.6196 1.07027 10.7063 1.22262H10.7068ZM6.1741 14.1297H4.10629L3.37656 15.9578H5.44438L6.1741 14.1297ZM13.026 15.9578H15.8439C16.1176 15.9578 16.2323 16.4392 15.9475 16.5494L12.4055 16.5758C12.1028 16.7586 11.3355 17.6514 11.0486 17.6981C10.9262 17.7179 10.8313 17.6493 10.7348 17.5828C10.0294 17.0994 8.98484 15.9984 8.38258 15.3489C8.20941 15.1626 7.42027 14.1561 7.28773 14.1307C7.16992 14.1084 6.87336 14.0977 6.8043 14.2135L5.91969 16.3742L5.7902 16.5286L3.15922 16.5738L2.68645 17.5828H5.01781C5.12242 17.5828 5.35906 17.8728 5.23871 18.0058L4.10578 20.7922H5.24125L7.47359 15.4525C7.62898 15.3266 7.79707 15.4058 7.93723 15.5109L14.1005 20.7922H15.8642L12.8234 18.0906C12.6431 17.9672 12.8021 17.5828 12.9651 17.5828H19.3107L18.8648 16.587L16.9164 16.5489C16.5995 16.4509 16.7534 15.9578 17.0195 15.9578H18.6211L17.832 14.1271L14.6759 14.1383L13.0255 15.9583L13.026 15.9578ZM13.1479 20.7922L7.77574 16.2011L5.88973 20.7922H13.1474H13.1479ZM20.6082 20.7922L19.5336 18.1922H13.8776L16.8173 20.7922H20.6082Z" fill="#FCFCFC"/>
</svg>
