<svg width="22" height="16" viewBox="0 0 22 16" fill="none" xmlns="http://www.w3.org/2000/svg">
<path d="M0.600422 2.22752C0.797859 1.16843 1.61077 0.357146 2.69342 0.237709L16.5884 0.234865C17.0154 0.199928 17.0921 0.797521 16.6684 0.847084C11.9502 0.884053 7.21702 0.769084 2.50777 0.905178C1.78098 1.09286 1.30445 1.67908 1.21955 2.42008L1.24595 2.4928C3.95239 4.68493 6.5658 6.99527 9.30758 9.14068C10.4508 9.80774 11.921 9.73218 12.9878 8.9473L20.7728 2.47127C20.7159 1.54543 20.0517 0.930771 19.1405 0.851553C18.7862 0.820678 18.0468 0.917771 17.7726 0.838146C17.4927 0.75649 17.5037 0.280771 17.8851 0.236084C19.3753 0.0626151 21.1892 0.464803 21.4 2.22752V13.8463C21.2014 14.9265 20.3807 15.7203 19.2688 15.7979L2.65198 15.7955C1.58395 15.6781 0.786891 14.8956 0.599609 13.8463V11.0431C0.759672 10.7844 1.03592 10.7636 1.20045 11.0314C1.2618 11.8508 1.14683 12.7291 1.20939 13.5412C1.26911 14.3204 1.69811 14.9224 2.46633 15.128C8.01489 15.2645 13.587 15.1487 19.1445 15.1865C19.9509 15.1885 20.7902 14.4443 20.7902 13.6228V3.28377L13.2872 9.49168C11.8808 10.4598 10.118 10.4598 8.71161 9.49168L1.2098 3.28377V10.0072C1.2098 10.2359 0.696703 10.2835 0.600422 10.0275V2.22752Z" fill="#FCFCFC"/>
</svg>
