<svg width="22" height="22" viewBox="0 0 22 22" fill="none" xmlns="http://www.w3.org/2000/svg">
<path d="M4.29654 0.601562C4.73748 0.702746 5.08683 0.898895 5.37005 1.25445L8.43229 6.56008C8.7206 7.11857 8.6912 7.81894 8.29832 8.3209C7.83816 8.90991 6.51648 9.60293 7.08122 10.4701C7.36839 10.911 8.02075 11.5932 8.39781 11.9969C9.19036 12.8453 10.1616 13.8046 11.0609 14.5338C11.6206 14.9871 11.9293 15.3461 12.6048 14.7797C13.5228 14.0092 13.97 12.8832 15.4398 13.5672L20.7457 16.6292C21.1013 16.913 21.2974 17.2623 21.3986 17.7027V18.19C21.3206 18.3352 21.3025 18.502 21.2313 18.6523C21.0821 18.9655 19.5444 20.4923 19.2058 20.7698C17.6428 22.0513 14.9067 21.109 13.2877 20.3499C8.79296 18.2437 3.75611 13.2065 1.64923 8.71206C0.883812 7.07956 -0.0579814 4.34252 1.249 2.77333C1.53561 2.42965 3.02687 0.92094 3.34683 0.768883C3.49664 0.697658 3.66397 0.679005 3.80925 0.601562H4.29654ZM3.83921 1.30193C3.76233 1.31493 3.52547 1.39577 3.5413 1.49695L7.44471 8.23724C7.85738 7.90034 8.11685 7.42325 7.84664 6.90207L4.72278 1.53595C4.46218 1.32511 4.17387 1.24484 3.83921 1.30193ZM20.0577 18.9621L13.2741 15.1188L13.1938 15.1211C12.7823 15.5988 12.2096 15.8712 11.5754 15.6847C11.1689 15.5654 10.4866 14.9329 10.1457 14.6367C9.09652 13.7266 8.01171 12.6339 7.1191 11.5701C6.54644 10.8878 5.93705 10.2875 6.43169 9.33782C6.55945 9.09249 6.77539 8.94665 6.92011 8.7245L3.03648 1.94182C2.23884 2.74846 1.36997 3.27755 1.28857 4.51945C1.10485 7.30454 3.54639 10.9426 5.27225 13.0098C6.76974 14.8034 8.60132 16.5331 10.499 17.8983C12.3154 19.2046 15.26 20.901 17.5591 20.7082C18.7321 20.6099 19.2906 19.7162 20.0577 18.9627V18.9621ZM13.7207 14.6152L20.5252 18.4647C20.8531 18.1487 20.7299 17.5354 20.4201 17.2392C18.5569 16.1618 16.7162 15.0047 14.7936 14.051C14.3227 13.9917 13.9898 14.2687 13.7207 14.6157V14.6152Z" fill="#FCFCFC"/>
</svg>
