<svg width="24" height="24" viewBox="0 0 24 24" fill="none" xmlns="http://www.w3.org/2000/svg">
<path d="M10.1921 12.1705L7.32592 15.0366C5.65164 16.7109 2.93484 16.7078 1.25745 15.0335C-0.419934 13.3562 -0.419934 10.6425 1.25434 8.96507C2.93173 7.28768 5.64542 7.28768 7.32592 8.96507L10.189 11.8281C10.2823 11.9215 10.2855 12.074 10.1921 12.1705Z" fill="#20CFCA"/>
<path d="M15.0347 22.7449C13.3604 24.4192 10.6436 24.4161 8.96625 22.7418C7.29197 21.0675 7.28886 18.3507 8.96314 16.6733L11.8293 13.8071C11.9227 13.7138 12.0752 13.7169 12.1654 13.8071L15.0316 16.6733C16.7059 18.3476 16.709 21.0644 15.0316 22.7449H15.0347Z" fill="#1BC2FD"/>
<path d="M22.7459 15.0351C21.0685 16.7125 18.3486 16.7094 16.6743 15.0351L13.8081 12.1689C13.7179 12.0787 13.7148 11.9262 13.8081 11.8328L16.6743 8.96664C18.3486 7.29237 21.0716 7.29237 22.7459 8.96664C24.4202 10.6409 24.4202 13.3639 22.7459 15.0382V15.0351Z" fill="#20CFCA"/>
<path d="M15.0376 7.32845L12.1714 10.1946C12.0781 10.288 11.9256 10.2849 11.8291 10.1915L8.96605 7.32845C7.28866 5.65106 7.28866 2.93737 8.96605 1.25687C10.6403 -0.417401 13.3571 -0.420513 15.0376 1.25687C16.7119 2.93115 16.7119 5.65418 15.0376 7.32845Z" fill="#1BC2FD"/>
</svg>

